<mxfile host="app.diagrams.net" agent="Mozilla/5.0 (Windows NT 10.0; Win64; x64) AppleWebKit/537.36 (KHTML, like Gecko) Chrome/132.0.0.0 Safari/537.36" version="26.0.8">
  <diagram name="หน้า-1" id="eh4XmbmzgDnAuWuqmpsm">
    <mxGraphModel dx="2227" dy="759" grid="1" gridSize="10" guides="1" tooltips="1" connect="1" arrows="1" fold="1" page="1" pageScale="1" pageWidth="827" pageHeight="1169" math="0" shadow="0">
      <root>
        <mxCell id="0" />
        <mxCell id="1" parent="0" />
        <mxCell id="FMb4IsS57maZO2ft8bvY-1" value="นักศึกษา" style="rounded=1;arcSize=10;whiteSpace=wrap;html=1;align=center;" parent="1" vertex="1">
          <mxGeometry x="60" y="40" width="100" height="40" as="geometry" />
        </mxCell>
        <mxCell id="FMb4IsS57maZO2ft8bvY-3" value="" style="endArrow=none;html=1;rounded=0;" parent="1" edge="1">
          <mxGeometry relative="1" as="geometry">
            <mxPoint x="160" y="59.5" as="sourcePoint" />
            <mxPoint x="320" y="59.5" as="targetPoint" />
          </mxGeometry>
        </mxCell>
        <mxCell id="FMb4IsS57maZO2ft8bvY-4" value="1" style="resizable=0;html=1;whiteSpace=wrap;align=right;verticalAlign=bottom;" parent="FMb4IsS57maZO2ft8bvY-3" connectable="0" vertex="1">
          <mxGeometry x="1" relative="1" as="geometry" />
        </mxCell>
        <mxCell id="FMb4IsS57maZO2ft8bvY-6" value="" style="endArrow=none;html=1;rounded=0;" parent="1" edge="1">
          <mxGeometry relative="1" as="geometry">
            <mxPoint x="440" y="59.519999999999996" as="sourcePoint" />
            <mxPoint x="600" y="59.519999999999996" as="targetPoint" />
          </mxGeometry>
        </mxCell>
        <mxCell id="FMb4IsS57maZO2ft8bvY-7" value="M" style="resizable=0;html=1;whiteSpace=wrap;align=right;verticalAlign=bottom;" parent="FMb4IsS57maZO2ft8bvY-6" connectable="0" vertex="1">
          <mxGeometry x="1" relative="1" as="geometry" />
        </mxCell>
        <mxCell id="FMb4IsS57maZO2ft8bvY-8" value="บัญชี" style="rounded=1;arcSize=10;whiteSpace=wrap;html=1;align=center;" parent="1" vertex="1">
          <mxGeometry x="600" y="40" width="100" height="40" as="geometry" />
        </mxCell>
        <mxCell id="FMb4IsS57maZO2ft8bvY-9" value="บัญชี" style="rounded=1;arcSize=10;whiteSpace=wrap;html=1;align=center;" parent="1" vertex="1">
          <mxGeometry x="60" y="120" width="100" height="40" as="geometry" />
        </mxCell>
        <mxCell id="FMb4IsS57maZO2ft8bvY-10" value="" style="endArrow=none;html=1;rounded=0;" parent="1" edge="1">
          <mxGeometry relative="1" as="geometry">
            <mxPoint x="160" y="139.51999999999998" as="sourcePoint" />
            <mxPoint x="320" y="139.51999999999998" as="targetPoint" />
          </mxGeometry>
        </mxCell>
        <mxCell id="FMb4IsS57maZO2ft8bvY-11" value="1" style="resizable=0;html=1;whiteSpace=wrap;align=right;verticalAlign=bottom;" parent="FMb4IsS57maZO2ft8bvY-10" connectable="0" vertex="1">
          <mxGeometry x="1" relative="1" as="geometry" />
        </mxCell>
        <mxCell id="FMb4IsS57maZO2ft8bvY-13" value="" style="endArrow=none;html=1;rounded=0;" parent="1" edge="1">
          <mxGeometry relative="1" as="geometry">
            <mxPoint x="440" y="139.51999999999998" as="sourcePoint" />
            <mxPoint x="600" y="139.51999999999998" as="targetPoint" />
          </mxGeometry>
        </mxCell>
        <mxCell id="FMb4IsS57maZO2ft8bvY-14" value="M" style="resizable=0;html=1;whiteSpace=wrap;align=right;verticalAlign=bottom;" parent="FMb4IsS57maZO2ft8bvY-13" connectable="0" vertex="1">
          <mxGeometry x="1" relative="1" as="geometry" />
        </mxCell>
        <mxCell id="FMb4IsS57maZO2ft8bvY-15" value="ATM" style="rounded=1;arcSize=10;whiteSpace=wrap;html=1;align=center;" parent="1" vertex="1">
          <mxGeometry x="600" y="120" width="100" height="40" as="geometry" />
        </mxCell>
        <mxCell id="FMb4IsS57maZO2ft8bvY-16" value="เป็นเจ้าของ" style="shape=rhombus;perimeter=rhombusPerimeter;whiteSpace=wrap;html=1;align=center;" parent="1" vertex="1">
          <mxGeometry x="320" y="30" width="120" height="60" as="geometry" />
        </mxCell>
        <mxCell id="FMb4IsS57maZO2ft8bvY-17" value="ทำการเข้าสู่ระบบ" style="shape=rhombus;perimeter=rhombusPerimeter;whiteSpace=wrap;html=1;align=center;" parent="1" vertex="1">
          <mxGeometry x="320" y="110" width="120" height="60" as="geometry" />
        </mxCell>
        <mxCell id="FMb4IsS57maZO2ft8bvY-18" value="บัญชี" style="rounded=1;arcSize=10;whiteSpace=wrap;html=1;align=center;" parent="1" vertex="1">
          <mxGeometry x="60" y="200" width="100" height="40" as="geometry" />
        </mxCell>
        <mxCell id="FMb4IsS57maZO2ft8bvY-19" value="" style="endArrow=none;html=1;rounded=0;" parent="1" edge="1">
          <mxGeometry relative="1" as="geometry">
            <mxPoint x="160" y="219.51999999999998" as="sourcePoint" />
            <mxPoint x="320" y="219.51999999999998" as="targetPoint" />
          </mxGeometry>
        </mxCell>
        <mxCell id="FMb4IsS57maZO2ft8bvY-20" value="1" style="resizable=0;html=1;whiteSpace=wrap;align=right;verticalAlign=bottom;" parent="FMb4IsS57maZO2ft8bvY-19" connectable="0" vertex="1">
          <mxGeometry x="1" relative="1" as="geometry" />
        </mxCell>
        <mxCell id="FMb4IsS57maZO2ft8bvY-21" value="สามารถ" style="shape=rhombus;perimeter=rhombusPerimeter;whiteSpace=wrap;html=1;align=center;" parent="1" vertex="1">
          <mxGeometry x="320" y="190" width="120" height="60" as="geometry" />
        </mxCell>
        <mxCell id="FMb4IsS57maZO2ft8bvY-22" value="" style="endArrow=none;html=1;rounded=0;" parent="1" edge="1">
          <mxGeometry relative="1" as="geometry">
            <mxPoint x="440" y="219.51999999999998" as="sourcePoint" />
            <mxPoint x="600" y="219.51999999999998" as="targetPoint" />
          </mxGeometry>
        </mxCell>
        <mxCell id="FMb4IsS57maZO2ft8bvY-23" value="M" style="resizable=0;html=1;whiteSpace=wrap;align=right;verticalAlign=bottom;" parent="FMb4IsS57maZO2ft8bvY-22" connectable="0" vertex="1">
          <mxGeometry x="1" relative="1" as="geometry" />
        </mxCell>
        <mxCell id="FMb4IsS57maZO2ft8bvY-24" value="ธุรกรรม" style="rounded=1;arcSize=10;whiteSpace=wrap;html=1;align=center;" parent="1" vertex="1">
          <mxGeometry x="600" y="200" width="100" height="40" as="geometry" />
        </mxCell>
        <mxCell id="FMb4IsS57maZO2ft8bvY-25" value="ธุรกรรม" style="rounded=1;arcSize=10;whiteSpace=wrap;html=1;align=center;" parent="1" vertex="1">
          <mxGeometry x="60" y="280" width="100" height="40" as="geometry" />
        </mxCell>
        <mxCell id="FMb4IsS57maZO2ft8bvY-26" value="" style="endArrow=none;html=1;rounded=0;" parent="1" edge="1">
          <mxGeometry relative="1" as="geometry">
            <mxPoint x="160" y="299.52" as="sourcePoint" />
            <mxPoint x="320" y="299.52" as="targetPoint" />
          </mxGeometry>
        </mxCell>
        <mxCell id="FMb4IsS57maZO2ft8bvY-27" value="M" style="resizable=0;html=1;whiteSpace=wrap;align=right;verticalAlign=bottom;" parent="FMb4IsS57maZO2ft8bvY-26" connectable="0" vertex="1">
          <mxGeometry x="1" relative="1" as="geometry" />
        </mxCell>
        <mxCell id="FMb4IsS57maZO2ft8bvY-28" value="สามารถ" style="shape=rhombus;perimeter=rhombusPerimeter;whiteSpace=wrap;html=1;align=center;" parent="1" vertex="1">
          <mxGeometry x="320" y="270" width="120" height="60" as="geometry" />
        </mxCell>
        <mxCell id="FMb4IsS57maZO2ft8bvY-29" value="แอปธนาคาร" style="rounded=1;arcSize=10;whiteSpace=wrap;html=1;align=center;" parent="1" vertex="1">
          <mxGeometry x="600" y="280" width="100" height="40" as="geometry" />
        </mxCell>
        <mxCell id="FMb4IsS57maZO2ft8bvY-30" value="" style="endArrow=none;html=1;rounded=0;" parent="1" edge="1">
          <mxGeometry relative="1" as="geometry">
            <mxPoint x="440" y="299.52" as="sourcePoint" />
            <mxPoint x="600" y="299.52" as="targetPoint" />
          </mxGeometry>
        </mxCell>
        <mxCell id="FMb4IsS57maZO2ft8bvY-31" value="1" style="resizable=0;html=1;whiteSpace=wrap;align=right;verticalAlign=bottom;" parent="FMb4IsS57maZO2ft8bvY-30" connectable="0" vertex="1">
          <mxGeometry x="1" relative="1" as="geometry" />
        </mxCell>
        <mxCell id="FMb4IsS57maZO2ft8bvY-32" value="ธุรกรรม" style="rounded=1;arcSize=10;whiteSpace=wrap;html=1;align=center;" parent="1" vertex="1">
          <mxGeometry x="600" y="440" width="100" height="40" as="geometry" />
        </mxCell>
        <mxCell id="FMb4IsS57maZO2ft8bvY-33" value="สามารถ" style="shape=rhombus;perimeter=rhombusPerimeter;whiteSpace=wrap;html=1;align=center;" parent="1" vertex="1">
          <mxGeometry x="320" y="430" width="120" height="60" as="geometry" />
        </mxCell>
        <mxCell id="FMb4IsS57maZO2ft8bvY-34" value="แปลงสกุลเงิน" style="rounded=1;arcSize=10;whiteSpace=wrap;html=1;align=center;" parent="1" vertex="1">
          <mxGeometry x="60" y="440" width="100" height="40" as="geometry" />
        </mxCell>
        <mxCell id="FMb4IsS57maZO2ft8bvY-35" value="" style="endArrow=none;html=1;rounded=0;" parent="1" edge="1">
          <mxGeometry relative="1" as="geometry">
            <mxPoint x="160" y="459.52" as="sourcePoint" />
            <mxPoint x="320" y="459.52" as="targetPoint" />
          </mxGeometry>
        </mxCell>
        <mxCell id="FMb4IsS57maZO2ft8bvY-36" value="M" style="resizable=0;html=1;whiteSpace=wrap;align=right;verticalAlign=bottom;" parent="FMb4IsS57maZO2ft8bvY-35" connectable="0" vertex="1">
          <mxGeometry x="1" relative="1" as="geometry" />
        </mxCell>
        <mxCell id="FMb4IsS57maZO2ft8bvY-37" value="" style="endArrow=none;html=1;rounded=0;" parent="1" edge="1">
          <mxGeometry relative="1" as="geometry">
            <mxPoint x="440" y="459.52" as="sourcePoint" />
            <mxPoint x="600" y="459.52" as="targetPoint" />
          </mxGeometry>
        </mxCell>
        <mxCell id="FMb4IsS57maZO2ft8bvY-38" value="M" style="resizable=0;html=1;whiteSpace=wrap;align=right;verticalAlign=bottom;" parent="FMb4IsS57maZO2ft8bvY-37" connectable="0" vertex="1">
          <mxGeometry x="1" relative="1" as="geometry" />
        </mxCell>
        <mxCell id="FMb4IsS57maZO2ft8bvY-39" value="Relationship คี่" style="text;html=1;align=center;verticalAlign=middle;resizable=0;points=[];autosize=1;strokeColor=none;fillColor=none;" parent="1" vertex="1">
          <mxGeometry y="10" width="100" height="30" as="geometry" />
        </mxCell>
        <mxCell id="FMb4IsS57maZO2ft8bvY-40" value="นักศึกษา" style="rounded=1;arcSize=10;whiteSpace=wrap;html=1;align=center;" parent="1" vertex="1">
          <mxGeometry x="60" y="520" width="100" height="40" as="geometry" />
        </mxCell>
        <mxCell id="FMb4IsS57maZO2ft8bvY-41" value="&lt;span style=&quot;white-space: pre;&quot;&gt;&#x9;&lt;/span&gt;Relationship คู่" style="text;html=1;align=center;verticalAlign=middle;resizable=0;points=[];autosize=1;strokeColor=none;fillColor=none;" parent="1" vertex="1">
          <mxGeometry y="480" width="130" height="30" as="geometry" />
        </mxCell>
        <mxCell id="FMb4IsS57maZO2ft8bvY-42" value="บัญชี" style="rounded=1;arcSize=10;whiteSpace=wrap;html=1;align=center;" parent="1" vertex="1">
          <mxGeometry x="360" y="520" width="100" height="40" as="geometry" />
        </mxCell>
        <mxCell id="FMb4IsS57maZO2ft8bvY-43" value="บัญชี" style="rounded=1;arcSize=10;whiteSpace=wrap;html=1;align=center;" parent="1" vertex="1">
          <mxGeometry x="60" y="600" width="100" height="40" as="geometry" />
        </mxCell>
        <mxCell id="FMb4IsS57maZO2ft8bvY-44" value="ATM" style="rounded=1;arcSize=10;whiteSpace=wrap;html=1;align=center;" parent="1" vertex="1">
          <mxGeometry x="360" y="600" width="100" height="40" as="geometry" />
        </mxCell>
        <mxCell id="FMb4IsS57maZO2ft8bvY-45" value="บัญชี" style="rounded=1;arcSize=10;whiteSpace=wrap;html=1;align=center;" parent="1" vertex="1">
          <mxGeometry x="60" y="680" width="100" height="40" as="geometry" />
        </mxCell>
        <mxCell id="FMb4IsS57maZO2ft8bvY-46" value="ธุรกรรม" style="rounded=1;arcSize=10;whiteSpace=wrap;html=1;align=center;" parent="1" vertex="1">
          <mxGeometry x="360" y="680" width="100" height="40" as="geometry" />
        </mxCell>
        <mxCell id="FMb4IsS57maZO2ft8bvY-47" value="ธุรกรรม" style="rounded=1;arcSize=10;whiteSpace=wrap;html=1;align=center;" parent="1" vertex="1">
          <mxGeometry x="60" y="760" width="100" height="40" as="geometry" />
        </mxCell>
        <mxCell id="FMb4IsS57maZO2ft8bvY-48" value="แอปธนาคาร" style="rounded=1;arcSize=10;whiteSpace=wrap;html=1;align=center;" parent="1" vertex="1">
          <mxGeometry x="360" y="760" width="100" height="40" as="geometry" />
        </mxCell>
        <mxCell id="FMb4IsS57maZO2ft8bvY-49" value="แปลงสกุลเงิน" style="rounded=1;arcSize=10;whiteSpace=wrap;html=1;align=center;" parent="1" vertex="1">
          <mxGeometry x="60" y="840" width="100" height="40" as="geometry" />
        </mxCell>
        <mxCell id="FMb4IsS57maZO2ft8bvY-50" value="ธุรกรรม" style="rounded=1;arcSize=10;whiteSpace=wrap;html=1;align=center;" parent="1" vertex="1">
          <mxGeometry x="360" y="840" width="100" height="40" as="geometry" />
        </mxCell>
        <mxCell id="FMb4IsS57maZO2ft8bvY-53" value="" style="edgeStyle=entityRelationEdgeStyle;fontSize=12;html=1;endArrow=ERoneToMany;startArrow=ERmandOne;rounded=0;exitX=1;exitY=0.5;exitDx=0;exitDy=0;entryX=0;entryY=0.5;entryDx=0;entryDy=0;" parent="1" source="FMb4IsS57maZO2ft8bvY-40" target="FMb4IsS57maZO2ft8bvY-42" edge="1">
          <mxGeometry width="100" height="100" relative="1" as="geometry">
            <mxPoint x="480" y="600" as="sourcePoint" />
            <mxPoint x="580" y="500" as="targetPoint" />
          </mxGeometry>
        </mxCell>
        <mxCell id="FMb4IsS57maZO2ft8bvY-54" value="" style="edgeStyle=entityRelationEdgeStyle;fontSize=12;html=1;endArrow=ERoneToMany;startArrow=ERmandOne;rounded=0;exitX=1;exitY=0.5;exitDx=0;exitDy=0;entryX=0;entryY=0.5;entryDx=0;entryDy=0;" parent="1" edge="1">
          <mxGeometry width="100" height="100" relative="1" as="geometry">
            <mxPoint x="160" y="619.52" as="sourcePoint" />
            <mxPoint x="360" y="619.52" as="targetPoint" />
          </mxGeometry>
        </mxCell>
        <mxCell id="FMb4IsS57maZO2ft8bvY-55" value="" style="edgeStyle=entityRelationEdgeStyle;fontSize=12;html=1;endArrow=ERoneToMany;startArrow=ERmandOne;rounded=0;exitX=1;exitY=0.5;exitDx=0;exitDy=0;entryX=0;entryY=0.5;entryDx=0;entryDy=0;" parent="1" edge="1">
          <mxGeometry width="100" height="100" relative="1" as="geometry">
            <mxPoint x="160" y="699.52" as="sourcePoint" />
            <mxPoint x="360" y="699.52" as="targetPoint" />
          </mxGeometry>
        </mxCell>
        <mxCell id="FMb4IsS57maZO2ft8bvY-56" value="" style="edgeStyle=entityRelationEdgeStyle;fontSize=12;html=1;endArrow=ERoneToMany;startArrow=ERmandOne;rounded=0;exitX=0;exitY=0.5;exitDx=0;exitDy=0;entryX=1;entryY=0.5;entryDx=0;entryDy=0;" parent="1" source="FMb4IsS57maZO2ft8bvY-48" target="FMb4IsS57maZO2ft8bvY-47" edge="1">
          <mxGeometry width="100" height="100" relative="1" as="geometry">
            <mxPoint x="160" y="660" as="sourcePoint" />
            <mxPoint x="360" y="660" as="targetPoint" />
          </mxGeometry>
        </mxCell>
        <mxCell id="FMb4IsS57maZO2ft8bvY-57" value="" style="edgeStyle=entityRelationEdgeStyle;fontSize=12;html=1;endArrow=ERoneToMany;startArrow=ERoneToMany;rounded=0;exitX=1;exitY=0.5;exitDx=0;exitDy=0;entryX=0;entryY=0.5;entryDx=0;entryDy=0;" parent="1" source="FMb4IsS57maZO2ft8bvY-49" target="FMb4IsS57maZO2ft8bvY-50" edge="1">
          <mxGeometry width="100" height="100" relative="1" as="geometry">
            <mxPoint x="480" y="820" as="sourcePoint" />
            <mxPoint x="580" y="720" as="targetPoint" />
          </mxGeometry>
        </mxCell>
        <mxCell id="FMb4IsS57maZO2ft8bvY-59" value="&lt;span style=&quot;text-wrap-mode: wrap; text-decoration-line: underline;&quot;&gt;Attribute&lt;/span&gt;" style="text;html=1;align=center;verticalAlign=middle;resizable=0;points=[];autosize=1;strokeColor=none;fillColor=none;" parent="1" vertex="1">
          <mxGeometry x="20" y="950" width="70" height="30" as="geometry" />
        </mxCell>
        <mxCell id="FMb4IsS57maZO2ft8bvY-60" value="นักศึกษา" style="whiteSpace=wrap;html=1;align=center;" parent="1" vertex="1">
          <mxGeometry x="180" y="1120" width="100" height="40" as="geometry" />
        </mxCell>
        <mxCell id="FMb4IsS57maZO2ft8bvY-61" value="บัญชี" style="whiteSpace=wrap;html=1;align=center;" parent="1" vertex="1">
          <mxGeometry x="560" y="1120" width="100" height="40" as="geometry" />
        </mxCell>
        <mxCell id="FMb4IsS57maZO2ft8bvY-128" style="edgeStyle=orthogonalEdgeStyle;rounded=0;orthogonalLoop=1;jettySize=auto;html=1;exitX=0;exitY=0.5;exitDx=0;exitDy=0;entryX=1;entryY=0.5;entryDx=0;entryDy=0;endArrow=none;startFill=0;" parent="1" source="FMb4IsS57maZO2ft8bvY-62" target="FMb4IsS57maZO2ft8bvY-111" edge="1">
          <mxGeometry relative="1" as="geometry" />
        </mxCell>
        <mxCell id="FMb4IsS57maZO2ft8bvY-62" value="ATM" style="whiteSpace=wrap;html=1;align=center;" parent="1" vertex="1">
          <mxGeometry x="180" y="1360" width="100" height="40" as="geometry" />
        </mxCell>
        <mxCell id="FMb4IsS57maZO2ft8bvY-130" style="edgeStyle=orthogonalEdgeStyle;rounded=0;orthogonalLoop=1;jettySize=auto;html=1;exitX=0.5;exitY=0;exitDx=0;exitDy=0;endArrow=none;startFill=0;" parent="1" source="FMb4IsS57maZO2ft8bvY-63" target="FMb4IsS57maZO2ft8bvY-118" edge="1">
          <mxGeometry relative="1" as="geometry" />
        </mxCell>
        <mxCell id="FMb4IsS57maZO2ft8bvY-131" style="edgeStyle=orthogonalEdgeStyle;rounded=0;orthogonalLoop=1;jettySize=auto;html=1;exitX=1;exitY=0;exitDx=0;exitDy=0;entryX=0;entryY=1;entryDx=0;entryDy=0;endArrow=none;startFill=0;" parent="1" source="FMb4IsS57maZO2ft8bvY-63" target="FMb4IsS57maZO2ft8bvY-119" edge="1">
          <mxGeometry relative="1" as="geometry" />
        </mxCell>
        <mxCell id="FMb4IsS57maZO2ft8bvY-136" style="edgeStyle=orthogonalEdgeStyle;rounded=0;orthogonalLoop=1;jettySize=auto;html=1;exitX=0;exitY=0.5;exitDx=0;exitDy=0;entryX=0.5;entryY=0;entryDx=0;entryDy=0;endArrow=none;startFill=0;" parent="1" source="FMb4IsS57maZO2ft8bvY-63" target="FMb4IsS57maZO2ft8bvY-123" edge="1">
          <mxGeometry relative="1" as="geometry" />
        </mxCell>
        <mxCell id="FMb4IsS57maZO2ft8bvY-63" value="ธุรกรรม" style="whiteSpace=wrap;html=1;align=center;" parent="1" vertex="1">
          <mxGeometry x="560" y="1360" width="100" height="40" as="geometry" />
        </mxCell>
        <mxCell id="FMb4IsS57maZO2ft8bvY-137" style="edgeStyle=orthogonalEdgeStyle;rounded=0;orthogonalLoop=1;jettySize=auto;html=1;exitX=0.5;exitY=0;exitDx=0;exitDy=0;entryX=0.5;entryY=1;entryDx=0;entryDy=0;endArrow=none;startFill=0;" parent="1" source="FMb4IsS57maZO2ft8bvY-64" target="FMb4IsS57maZO2ft8bvY-114" edge="1">
          <mxGeometry relative="1" as="geometry" />
        </mxCell>
        <mxCell id="FMb4IsS57maZO2ft8bvY-138" style="edgeStyle=orthogonalEdgeStyle;rounded=0;orthogonalLoop=1;jettySize=auto;html=1;exitX=0;exitY=0;exitDx=0;exitDy=0;endArrow=none;startFill=0;" parent="1" source="FMb4IsS57maZO2ft8bvY-64" target="FMb4IsS57maZO2ft8bvY-113" edge="1">
          <mxGeometry relative="1" as="geometry" />
        </mxCell>
        <mxCell id="FMb4IsS57maZO2ft8bvY-139" style="edgeStyle=orthogonalEdgeStyle;rounded=0;orthogonalLoop=1;jettySize=auto;html=1;exitX=0;exitY=0.5;exitDx=0;exitDy=0;entryX=1;entryY=0.5;entryDx=0;entryDy=0;endArrow=none;startFill=0;" parent="1" source="FMb4IsS57maZO2ft8bvY-64" target="FMb4IsS57maZO2ft8bvY-115" edge="1">
          <mxGeometry relative="1" as="geometry" />
        </mxCell>
        <mxCell id="FMb4IsS57maZO2ft8bvY-140" style="edgeStyle=orthogonalEdgeStyle;rounded=0;orthogonalLoop=1;jettySize=auto;html=1;exitX=0.5;exitY=1;exitDx=0;exitDy=0;entryX=1;entryY=0.5;entryDx=0;entryDy=0;endArrow=none;startFill=0;" parent="1" source="FMb4IsS57maZO2ft8bvY-64" target="FMb4IsS57maZO2ft8bvY-116" edge="1">
          <mxGeometry relative="1" as="geometry" />
        </mxCell>
        <mxCell id="FMb4IsS57maZO2ft8bvY-64" value="แอปธนาคาร" style="whiteSpace=wrap;html=1;align=center;" parent="1" vertex="1">
          <mxGeometry x="180" y="1560" width="100" height="40" as="geometry" />
        </mxCell>
        <mxCell id="FMb4IsS57maZO2ft8bvY-142" style="edgeStyle=orthogonalEdgeStyle;rounded=0;orthogonalLoop=1;jettySize=auto;html=1;exitX=0.5;exitY=0;exitDx=0;exitDy=0;entryX=0;entryY=0.5;entryDx=0;entryDy=0;endArrow=none;startFill=0;" parent="1" source="FMb4IsS57maZO2ft8bvY-65" target="FMb4IsS57maZO2ft8bvY-125" edge="1">
          <mxGeometry relative="1" as="geometry" />
        </mxCell>
        <mxCell id="FMb4IsS57maZO2ft8bvY-143" style="edgeStyle=orthogonalEdgeStyle;rounded=0;orthogonalLoop=1;jettySize=auto;html=1;exitX=1;exitY=0.5;exitDx=0;exitDy=0;entryX=0.5;entryY=0;entryDx=0;entryDy=0;endArrow=none;startFill=0;" parent="1" source="FMb4IsS57maZO2ft8bvY-65" target="FMb4IsS57maZO2ft8bvY-126" edge="1">
          <mxGeometry relative="1" as="geometry" />
        </mxCell>
        <mxCell id="FMb4IsS57maZO2ft8bvY-65" value="แปลงสกุลเงิน" style="whiteSpace=wrap;html=1;align=center;" parent="1" vertex="1">
          <mxGeometry x="560" y="1560" width="100" height="40" as="geometry" />
        </mxCell>
        <mxCell id="FMb4IsS57maZO2ft8bvY-66" value="รหัสนักศึกษา" style="ellipse;whiteSpace=wrap;html=1;align=center;" parent="1" vertex="1">
          <mxGeometry x="60" y="1060" width="100" height="40" as="geometry" />
        </mxCell>
        <mxCell id="FMb4IsS57maZO2ft8bvY-67" value="นามสกุล" style="ellipse;whiteSpace=wrap;html=1;align=center;" parent="1" vertex="1">
          <mxGeometry x="300" y="1060" width="100" height="40" as="geometry" />
        </mxCell>
        <mxCell id="FMb4IsS57maZO2ft8bvY-68" value="ชื่อ&amp;nbsp;" style="ellipse;whiteSpace=wrap;html=1;align=center;" parent="1" vertex="1">
          <mxGeometry x="180" y="1040" width="100" height="40" as="geometry" />
        </mxCell>
        <mxCell id="FMb4IsS57maZO2ft8bvY-69" value="เบอร์มือถือ" style="ellipse;whiteSpace=wrap;html=1;align=center;" parent="1" vertex="1">
          <mxGeometry x="60" y="1169" width="100" height="40" as="geometry" />
        </mxCell>
        <mxCell id="FMb4IsS57maZO2ft8bvY-70" value="อีเมลล์" style="ellipse;whiteSpace=wrap;html=1;align=center;" parent="1" vertex="1">
          <mxGeometry x="180" y="1200" width="100" height="40" as="geometry" />
        </mxCell>
        <mxCell id="FMb4IsS57maZO2ft8bvY-71" value="ที่อยู่" style="ellipse;whiteSpace=wrap;html=1;align=center;" parent="1" vertex="1">
          <mxGeometry x="300" y="1169" width="100" height="40" as="geometry" />
        </mxCell>
        <mxCell id="FMb4IsS57maZO2ft8bvY-72" value="" style="endArrow=none;html=1;rounded=0;exitX=0.5;exitY=1;exitDx=0;exitDy=0;entryX=0.5;entryY=0;entryDx=0;entryDy=0;" parent="1" source="FMb4IsS57maZO2ft8bvY-68" target="FMb4IsS57maZO2ft8bvY-60" edge="1">
          <mxGeometry relative="1" as="geometry">
            <mxPoint x="390" y="1060" as="sourcePoint" />
            <mxPoint x="550" y="1060" as="targetPoint" />
          </mxGeometry>
        </mxCell>
        <mxCell id="FMb4IsS57maZO2ft8bvY-73" value="" style="endArrow=none;html=1;rounded=0;exitX=0;exitY=1;exitDx=0;exitDy=0;entryX=1;entryY=0;entryDx=0;entryDy=0;" parent="1" source="FMb4IsS57maZO2ft8bvY-67" target="FMb4IsS57maZO2ft8bvY-60" edge="1">
          <mxGeometry relative="1" as="geometry">
            <mxPoint x="240" y="1090" as="sourcePoint" />
            <mxPoint x="240" y="1130" as="targetPoint" />
            <Array as="points">
              <mxPoint x="300" y="1100" />
            </Array>
          </mxGeometry>
        </mxCell>
        <mxCell id="FMb4IsS57maZO2ft8bvY-74" value="" style="endArrow=none;html=1;rounded=0;exitX=1;exitY=1;exitDx=0;exitDy=0;entryX=0;entryY=0;entryDx=0;entryDy=0;" parent="1" source="FMb4IsS57maZO2ft8bvY-66" target="FMb4IsS57maZO2ft8bvY-60" edge="1">
          <mxGeometry relative="1" as="geometry">
            <mxPoint x="250" y="1100" as="sourcePoint" />
            <mxPoint x="250" y="1140" as="targetPoint" />
          </mxGeometry>
        </mxCell>
        <mxCell id="FMb4IsS57maZO2ft8bvY-75" value="" style="endArrow=none;html=1;rounded=0;exitX=0;exitY=1;exitDx=0;exitDy=0;entryX=1;entryY=0;entryDx=0;entryDy=0;" parent="1" source="FMb4IsS57maZO2ft8bvY-60" target="FMb4IsS57maZO2ft8bvY-69" edge="1">
          <mxGeometry relative="1" as="geometry">
            <mxPoint x="260" y="1110" as="sourcePoint" />
            <mxPoint x="260" y="1150" as="targetPoint" />
          </mxGeometry>
        </mxCell>
        <mxCell id="FMb4IsS57maZO2ft8bvY-76" value="" style="endArrow=none;html=1;rounded=0;exitX=0.5;exitY=1;exitDx=0;exitDy=0;entryX=0.5;entryY=0;entryDx=0;entryDy=0;" parent="1" source="FMb4IsS57maZO2ft8bvY-60" target="FMb4IsS57maZO2ft8bvY-70" edge="1">
          <mxGeometry relative="1" as="geometry">
            <mxPoint x="270" y="1120" as="sourcePoint" />
            <mxPoint x="270" y="1160" as="targetPoint" />
          </mxGeometry>
        </mxCell>
        <mxCell id="FMb4IsS57maZO2ft8bvY-77" value="" style="endArrow=none;html=1;rounded=0;exitX=1;exitY=1;exitDx=0;exitDy=0;entryX=0.062;entryY=0.365;entryDx=0;entryDy=0;entryPerimeter=0;" parent="1" source="FMb4IsS57maZO2ft8bvY-60" target="FMb4IsS57maZO2ft8bvY-71" edge="1">
          <mxGeometry relative="1" as="geometry">
            <mxPoint x="280" y="1130" as="sourcePoint" />
            <mxPoint x="280" y="1170" as="targetPoint" />
          </mxGeometry>
        </mxCell>
        <mxCell id="FMb4IsS57maZO2ft8bvY-95" style="edgeStyle=orthogonalEdgeStyle;rounded=0;orthogonalLoop=1;jettySize=auto;html=1;exitX=1;exitY=1;exitDx=0;exitDy=0;entryX=0;entryY=0;entryDx=0;entryDy=0;endArrow=none;startFill=0;" parent="1" source="FMb4IsS57maZO2ft8bvY-78" target="FMb4IsS57maZO2ft8bvY-61" edge="1">
          <mxGeometry relative="1" as="geometry">
            <Array as="points">
              <mxPoint x="520" y="1054" />
              <mxPoint x="520" y="1080" />
              <mxPoint x="560" y="1080" />
            </Array>
          </mxGeometry>
        </mxCell>
        <mxCell id="FMb4IsS57maZO2ft8bvY-78" value="รหัสบัญชี" style="ellipse;whiteSpace=wrap;html=1;align=center;" parent="1" vertex="1">
          <mxGeometry x="420" y="1020" width="100" height="40" as="geometry" />
        </mxCell>
        <mxCell id="FMb4IsS57maZO2ft8bvY-86" value="หมายเลขบัญชี" style="ellipse;whiteSpace=wrap;html=1;align=center;" parent="1" vertex="1">
          <mxGeometry x="550" y="1020" width="100" height="40" as="geometry" />
        </mxCell>
        <mxCell id="FMb4IsS57maZO2ft8bvY-87" value="ประเภทบัญชี" style="ellipse;whiteSpace=wrap;html=1;align=center;" parent="1" vertex="1">
          <mxGeometry x="660" y="1005" width="100" height="40" as="geometry" />
        </mxCell>
        <mxCell id="FMb4IsS57maZO2ft8bvY-99" style="edgeStyle=orthogonalEdgeStyle;rounded=0;orthogonalLoop=1;jettySize=auto;html=1;exitX=0;exitY=0.5;exitDx=0;exitDy=0;entryX=1;entryY=0.5;entryDx=0;entryDy=0;endArrow=none;startFill=0;" parent="1" source="FMb4IsS57maZO2ft8bvY-88" target="FMb4IsS57maZO2ft8bvY-61" edge="1">
          <mxGeometry relative="1" as="geometry" />
        </mxCell>
        <mxCell id="FMb4IsS57maZO2ft8bvY-88" value="ล็อคอินแอพ" style="ellipse;whiteSpace=wrap;html=1;align=center;" parent="1" vertex="1">
          <mxGeometry x="680" y="1120" width="100" height="40" as="geometry" />
        </mxCell>
        <mxCell id="FMb4IsS57maZO2ft8bvY-100" style="edgeStyle=orthogonalEdgeStyle;rounded=0;orthogonalLoop=1;jettySize=auto;html=1;exitX=0;exitY=0;exitDx=0;exitDy=0;entryX=1;entryY=1;entryDx=0;entryDy=0;endArrow=none;startFill=0;" parent="1" source="FMb4IsS57maZO2ft8bvY-89" target="FMb4IsS57maZO2ft8bvY-61" edge="1">
          <mxGeometry relative="1" as="geometry" />
        </mxCell>
        <mxCell id="FMb4IsS57maZO2ft8bvY-89" value="รหัสผ่านแอพ" style="ellipse;whiteSpace=wrap;html=1;align=center;" parent="1" vertex="1">
          <mxGeometry x="670" y="1180" width="100" height="40" as="geometry" />
        </mxCell>
        <mxCell id="FMb4IsS57maZO2ft8bvY-90" value="รหัสATM" style="ellipse;whiteSpace=wrap;html=1;align=center;" parent="1" vertex="1">
          <mxGeometry x="570" y="1200" width="100" height="40" as="geometry" />
        </mxCell>
        <mxCell id="FMb4IsS57maZO2ft8bvY-102" style="edgeStyle=orthogonalEdgeStyle;rounded=0;orthogonalLoop=1;jettySize=auto;html=1;exitX=1;exitY=0;exitDx=0;exitDy=0;entryX=0;entryY=1;entryDx=0;entryDy=0;endArrow=none;startFill=0;" parent="1" source="FMb4IsS57maZO2ft8bvY-91" target="FMb4IsS57maZO2ft8bvY-61" edge="1">
          <mxGeometry relative="1" as="geometry" />
        </mxCell>
        <mxCell id="FMb4IsS57maZO2ft8bvY-91" value="ยอดเงิน&lt;span style=&quot;color: rgba(0, 0, 0, 0); font-family: monospace; font-size: 0px; text-align: start; text-wrap-mode: nowrap;&quot;&gt;%3CmxGraphModel%3E%3Croot%3E%3CmxCell%20id%3D%220%22%2F%3E%3CmxCell%20id%3D%221%22%20parent%3D%220%22%2F%3E%3CmxCell%20id%3D%222%22%20value%3D%22%E0%B8%AB%E0%B8%A1%E0%B8%B2%E0%B8%A2%E0%B9%80%E0%B8%A5%E0%B8%82%E0%B8%9A%E0%B8%B1%E0%B8%8D%E0%B8%8A%E0%B8%B5%22%20style%3D%22ellipse%3BwhiteSpace%3Dwrap%3Bhtml%3D1%3Balign%3Dcenter%3B%22%20vertex%3D%221%22%20parent%3D%221%22%3E%3CmxGeometry%20x%3D%22570%22%20y%3D%221040%22%20width%3D%22100%22%20height%3D%2240%22%20as%3D%22geometry%22%2F%3E%3C%2FmxCell%3E%3C%2Froot%3E%3C%2FmxGraphModel%3E&lt;/span&gt;&lt;span style=&quot;color: rgba(0, 0, 0, 0); font-family: monospace; font-size: 0px; text-align: start; text-wrap-mode: nowrap;&quot;&gt;%3CmxGraphModel%3E%3Croot%3E%3CmxCell%20id%3D%220%22%2F%3E%3CmxCell%20id%3D%221%22%20parent%3D%220%22%2F%3E%3CmxCell%20id%3D%222%22%20value%3D%22%E0%B8%AB%E0%B8%A1%E0%B8%B2%E0%B8%A2%E0%B9%80%E0%B8%A5%E0%B8%82%E0%B8%9A%E0%B8%B1%E0%B8%8D%E0%B8%8A%E0%B8%B5%22%20style%3D%22ellipse%3BwhiteSpace%3Dwrap%3Bhtml%3D1%3Balign%3Dcenter%3B%22%20vertex%3D%221%22%20parent%3D%221%22%3E%3CmxGeometry%20x%3D%22570%22%20y%3D%221040%22%20width%3D%22100%22%20height%3D%2240%22%20as%3D%22geometry%22%2F%3E%3C%2FmxCell%3E%3C%2Froot%3E%3C%2FmxGraphModel%3E&lt;/span&gt;" style="ellipse;whiteSpace=wrap;html=1;align=center;" parent="1" vertex="1">
          <mxGeometry x="460" y="1180" width="100" height="40" as="geometry" />
        </mxCell>
        <mxCell id="FMb4IsS57maZO2ft8bvY-103" style="edgeStyle=orthogonalEdgeStyle;rounded=0;orthogonalLoop=1;jettySize=auto;html=1;exitX=1;exitY=0.5;exitDx=0;exitDy=0;entryX=0;entryY=0.5;entryDx=0;entryDy=0;endArrow=none;startFill=0;" parent="1" source="FMb4IsS57maZO2ft8bvY-92" target="FMb4IsS57maZO2ft8bvY-61" edge="1">
          <mxGeometry relative="1" as="geometry" />
        </mxCell>
        <mxCell id="FMb4IsS57maZO2ft8bvY-92" value="รหัสนักศึกษา" style="ellipse;whiteSpace=wrap;html=1;align=center;" parent="1" vertex="1">
          <mxGeometry x="430" y="1120" width="100" height="40" as="geometry" />
        </mxCell>
        <mxCell id="FMb4IsS57maZO2ft8bvY-98" style="edgeStyle=orthogonalEdgeStyle;rounded=0;orthogonalLoop=1;jettySize=auto;html=1;exitX=0;exitY=1;exitDx=0;exitDy=0;entryX=1;entryY=0.25;entryDx=0;entryDy=0;endArrow=none;startFill=0;" parent="1" source="FMb4IsS57maZO2ft8bvY-93" target="FMb4IsS57maZO2ft8bvY-61" edge="1">
          <mxGeometry relative="1" as="geometry" />
        </mxCell>
        <mxCell id="FMb4IsS57maZO2ft8bvY-93" value="เวลาที่เข้าสู่ระบบ" style="ellipse;whiteSpace=wrap;html=1;align=center;" parent="1" vertex="1">
          <mxGeometry x="690" y="1060" width="100" height="40" as="geometry" />
        </mxCell>
        <mxCell id="FMb4IsS57maZO2ft8bvY-96" style="edgeStyle=orthogonalEdgeStyle;rounded=0;orthogonalLoop=1;jettySize=auto;html=1;exitX=0.5;exitY=1;exitDx=0;exitDy=0;entryX=0.397;entryY=0.077;entryDx=0;entryDy=0;entryPerimeter=0;endArrow=none;startFill=0;" parent="1" source="FMb4IsS57maZO2ft8bvY-86" target="FMb4IsS57maZO2ft8bvY-61" edge="1">
          <mxGeometry relative="1" as="geometry" />
        </mxCell>
        <mxCell id="FMb4IsS57maZO2ft8bvY-97" style="edgeStyle=orthogonalEdgeStyle;rounded=0;orthogonalLoop=1;jettySize=auto;html=1;exitX=0;exitY=1;exitDx=0;exitDy=0;entryX=0.884;entryY=-0.01;entryDx=0;entryDy=0;entryPerimeter=0;endArrow=none;startFill=0;" parent="1" source="FMb4IsS57maZO2ft8bvY-87" target="FMb4IsS57maZO2ft8bvY-61" edge="1">
          <mxGeometry relative="1" as="geometry" />
        </mxCell>
        <mxCell id="FMb4IsS57maZO2ft8bvY-101" style="edgeStyle=orthogonalEdgeStyle;rounded=0;orthogonalLoop=1;jettySize=auto;html=1;exitX=0.5;exitY=0;exitDx=0;exitDy=0;entryX=0.606;entryY=0.982;entryDx=0;entryDy=0;entryPerimeter=0;endArrow=none;startFill=0;" parent="1" source="FMb4IsS57maZO2ft8bvY-90" target="FMb4IsS57maZO2ft8bvY-61" edge="1">
          <mxGeometry relative="1" as="geometry" />
        </mxCell>
        <mxCell id="FMb4IsS57maZO2ft8bvY-104" value="บัญชี" style="rounded=1;arcSize=10;whiteSpace=wrap;html=1;align=center;" parent="1" vertex="1">
          <mxGeometry x="60" y="360" width="100" height="40" as="geometry" />
        </mxCell>
        <mxCell id="FMb4IsS57maZO2ft8bvY-105" value="" style="endArrow=none;html=1;rounded=0;" parent="1" edge="1">
          <mxGeometry relative="1" as="geometry">
            <mxPoint x="160" y="379.52" as="sourcePoint" />
            <mxPoint x="320" y="379.52" as="targetPoint" />
          </mxGeometry>
        </mxCell>
        <mxCell id="FMb4IsS57maZO2ft8bvY-106" value="1" style="resizable=0;html=1;whiteSpace=wrap;align=right;verticalAlign=bottom;" parent="FMb4IsS57maZO2ft8bvY-105" connectable="0" vertex="1">
          <mxGeometry x="1" relative="1" as="geometry" />
        </mxCell>
        <mxCell id="FMb4IsS57maZO2ft8bvY-107" value="" style="endArrow=none;html=1;rounded=0;" parent="1" edge="1">
          <mxGeometry relative="1" as="geometry">
            <mxPoint x="440" y="379.52" as="sourcePoint" />
            <mxPoint x="600" y="379.52" as="targetPoint" />
          </mxGeometry>
        </mxCell>
        <mxCell id="FMb4IsS57maZO2ft8bvY-108" value="1" style="resizable=0;html=1;whiteSpace=wrap;align=right;verticalAlign=bottom;" parent="FMb4IsS57maZO2ft8bvY-107" connectable="0" vertex="1">
          <mxGeometry x="1" relative="1" as="geometry" />
        </mxCell>
        <mxCell id="FMb4IsS57maZO2ft8bvY-109" value="แอปธนาคาร" style="rounded=1;arcSize=10;whiteSpace=wrap;html=1;align=center;" parent="1" vertex="1">
          <mxGeometry x="600" y="360" width="100" height="40" as="geometry" />
        </mxCell>
        <mxCell id="FMb4IsS57maZO2ft8bvY-110" value="ทำการเข้าสู่ระบบ" style="shape=rhombus;perimeter=rhombusPerimeter;whiteSpace=wrap;html=1;align=center;" parent="1" vertex="1">
          <mxGeometry x="320" y="350" width="120" height="60" as="geometry" />
        </mxCell>
        <mxCell id="FMb4IsS57maZO2ft8bvY-111" value="รหัสเครื่อง" style="ellipse;whiteSpace=wrap;html=1;align=center;" parent="1" vertex="1">
          <mxGeometry x="50" y="1360" width="100" height="40" as="geometry" />
        </mxCell>
        <mxCell id="FMb4IsS57maZO2ft8bvY-112" value="สถานที่ตั้งเครื่อง" style="ellipse;whiteSpace=wrap;html=1;align=center;" parent="1" vertex="1">
          <mxGeometry x="190" y="1280" width="100" height="40" as="geometry" />
        </mxCell>
        <mxCell id="FMb4IsS57maZO2ft8bvY-113" value="รหัสแอปธนาคาร" style="ellipse;whiteSpace=wrap;html=1;align=center;" parent="1" vertex="1">
          <mxGeometry x="60" y="1480" width="100" height="40" as="geometry" />
        </mxCell>
        <mxCell id="FMb4IsS57maZO2ft8bvY-114" value="เบอร์โทรศัพท์" style="ellipse;whiteSpace=wrap;html=1;align=center;" parent="1" vertex="1">
          <mxGeometry x="180" y="1480" width="100" height="40" as="geometry" />
        </mxCell>
        <mxCell id="FMb4IsS57maZO2ft8bvY-115" value="ชื่อผู้ใช้งาน" style="ellipse;whiteSpace=wrap;html=1;align=center;" parent="1" vertex="1">
          <mxGeometry x="50" y="1560" width="100" height="40" as="geometry" />
        </mxCell>
        <mxCell id="FMb4IsS57maZO2ft8bvY-116" value="รหัสผ่าน" style="ellipse;whiteSpace=wrap;html=1;align=center;" parent="1" vertex="1">
          <mxGeometry x="90" y="1630" width="100" height="40" as="geometry" />
        </mxCell>
        <mxCell id="FMb4IsS57maZO2ft8bvY-129" style="edgeStyle=orthogonalEdgeStyle;rounded=0;orthogonalLoop=1;jettySize=auto;html=1;exitX=1;exitY=1;exitDx=0;exitDy=0;entryX=0;entryY=0;entryDx=0;entryDy=0;endArrow=none;startFill=0;" parent="1" source="FMb4IsS57maZO2ft8bvY-117" target="FMb4IsS57maZO2ft8bvY-63" edge="1">
          <mxGeometry relative="1" as="geometry" />
        </mxCell>
        <mxCell id="FMb4IsS57maZO2ft8bvY-117" value="รหัสรายการธุรกรรม" style="ellipse;whiteSpace=wrap;html=1;align=center;" parent="1" vertex="1">
          <mxGeometry x="460" y="1280" width="100" height="40" as="geometry" />
        </mxCell>
        <mxCell id="FMb4IsS57maZO2ft8bvY-118" value="ประเภทธุรกรรม " style="ellipse;whiteSpace=wrap;html=1;align=center;" parent="1" vertex="1">
          <mxGeometry x="580" y="1280" width="100" height="40" as="geometry" />
        </mxCell>
        <mxCell id="FMb4IsS57maZO2ft8bvY-119" value="จำนวนเงิน" style="ellipse;whiteSpace=wrap;html=1;align=center;" parent="1" vertex="1">
          <mxGeometry x="690" y="1280" width="100" height="40" as="geometry" />
        </mxCell>
        <mxCell id="FMb4IsS57maZO2ft8bvY-132" style="edgeStyle=orthogonalEdgeStyle;rounded=0;orthogonalLoop=1;jettySize=auto;html=1;exitX=0;exitY=0.5;exitDx=0;exitDy=0;entryX=1;entryY=0.5;entryDx=0;entryDy=0;endArrow=none;startFill=0;" parent="1" source="FMb4IsS57maZO2ft8bvY-120" target="FMb4IsS57maZO2ft8bvY-63" edge="1">
          <mxGeometry relative="1" as="geometry" />
        </mxCell>
        <mxCell id="FMb4IsS57maZO2ft8bvY-120" value="วัน-เวลาที่ทำรายการ" style="ellipse;whiteSpace=wrap;html=1;align=center;" parent="1" vertex="1">
          <mxGeometry x="700" y="1340" width="100" height="40" as="geometry" />
        </mxCell>
        <mxCell id="FMb4IsS57maZO2ft8bvY-133" style="edgeStyle=orthogonalEdgeStyle;rounded=0;orthogonalLoop=1;jettySize=auto;html=1;exitX=0;exitY=0.5;exitDx=0;exitDy=0;entryX=1;entryY=0.75;entryDx=0;entryDy=0;endArrow=none;startFill=0;" parent="1" source="FMb4IsS57maZO2ft8bvY-121" target="FMb4IsS57maZO2ft8bvY-63" edge="1">
          <mxGeometry relative="1" as="geometry" />
        </mxCell>
        <mxCell id="FMb4IsS57maZO2ft8bvY-121" value="รหัสเครื่องATM" style="ellipse;whiteSpace=wrap;html=1;align=center;" parent="1" vertex="1">
          <mxGeometry x="700" y="1400" width="80" height="40" as="geometry" />
        </mxCell>
        <mxCell id="FMb4IsS57maZO2ft8bvY-134" style="edgeStyle=orthogonalEdgeStyle;rounded=0;orthogonalLoop=1;jettySize=auto;html=1;exitX=0.5;exitY=0;exitDx=0;exitDy=0;entryX=0.75;entryY=1;entryDx=0;entryDy=0;endArrow=none;startFill=0;" parent="1" source="FMb4IsS57maZO2ft8bvY-122" target="FMb4IsS57maZO2ft8bvY-63" edge="1">
          <mxGeometry relative="1" as="geometry" />
        </mxCell>
        <mxCell id="FMb4IsS57maZO2ft8bvY-122" value="รหัสบัญชี" style="ellipse;whiteSpace=wrap;html=1;align=center;" parent="1" vertex="1">
          <mxGeometry x="580" y="1420" width="100" height="40" as="geometry" />
        </mxCell>
        <mxCell id="FMb4IsS57maZO2ft8bvY-123" value="รหัสแอปธนาคาร" style="ellipse;whiteSpace=wrap;html=1;align=center;" parent="1" vertex="1">
          <mxGeometry x="450" y="1400" width="100" height="40" as="geometry" />
        </mxCell>
        <mxCell id="FMb4IsS57maZO2ft8bvY-124" value="รหัสสกุลเงิน" style="ellipse;whiteSpace=wrap;html=1;align=center;" parent="1" vertex="1">
          <mxGeometry x="490" y="1500" width="100" height="40" as="geometry" />
        </mxCell>
        <mxCell id="FMb4IsS57maZO2ft8bvY-125" value="ชื่อสกุลเงิน" style="ellipse;whiteSpace=wrap;html=1;align=center;" parent="1" vertex="1">
          <mxGeometry x="640" y="1500" width="100" height="40" as="geometry" />
        </mxCell>
        <mxCell id="FMb4IsS57maZO2ft8bvY-126" value="อัตราการแลกเปลี่ยนค่าเงิน" style="ellipse;whiteSpace=wrap;html=1;align=center;" parent="1" vertex="1">
          <mxGeometry x="660" y="1610" width="100" height="40" as="geometry" />
        </mxCell>
        <mxCell id="FMb4IsS57maZO2ft8bvY-127" style="edgeStyle=orthogonalEdgeStyle;rounded=0;orthogonalLoop=1;jettySize=auto;html=1;exitX=0.5;exitY=1;exitDx=0;exitDy=0;entryX=0.597;entryY=0.095;entryDx=0;entryDy=0;entryPerimeter=0;endArrow=none;startFill=0;" parent="1" source="FMb4IsS57maZO2ft8bvY-112" target="FMb4IsS57maZO2ft8bvY-62" edge="1">
          <mxGeometry relative="1" as="geometry" />
        </mxCell>
        <mxCell id="FMb4IsS57maZO2ft8bvY-141" style="edgeStyle=orthogonalEdgeStyle;rounded=0;orthogonalLoop=1;jettySize=auto;html=1;exitX=0;exitY=0.5;exitDx=0;exitDy=0;entryX=0.44;entryY=1.047;entryDx=0;entryDy=0;entryPerimeter=0;endArrow=none;startFill=0;" parent="1" source="FMb4IsS57maZO2ft8bvY-65" target="FMb4IsS57maZO2ft8bvY-124" edge="1">
          <mxGeometry relative="1" as="geometry" />
        </mxCell>
        <mxCell id="FMb4IsS57maZO2ft8bvY-221" style="edgeStyle=orthogonalEdgeStyle;rounded=0;orthogonalLoop=1;jettySize=auto;html=1;exitX=1;exitY=0.5;exitDx=0;exitDy=0;entryX=0;entryY=0.5;entryDx=0;entryDy=0;endArrow=none;startFill=0;" parent="1" source="FMb4IsS57maZO2ft8bvY-144" target="FMb4IsS57maZO2ft8bvY-158" edge="1">
          <mxGeometry relative="1" as="geometry" />
        </mxCell>
        <mxCell id="FMb4IsS57maZO2ft8bvY-144" value="นักศึกษา" style="whiteSpace=wrap;html=1;align=center;" parent="1" vertex="1">
          <mxGeometry x="140" y="1880" width="100" height="40" as="geometry" />
        </mxCell>
        <mxCell id="FMb4IsS57maZO2ft8bvY-145" value="รหัสนักศึกษา" style="ellipse;whiteSpace=wrap;html=1;align=center;" parent="1" vertex="1">
          <mxGeometry x="20" y="1820" width="100" height="40" as="geometry" />
        </mxCell>
        <mxCell id="FMb4IsS57maZO2ft8bvY-146" value="นามสกุล" style="ellipse;whiteSpace=wrap;html=1;align=center;" parent="1" vertex="1">
          <mxGeometry x="260" y="1820" width="100" height="40" as="geometry" />
        </mxCell>
        <mxCell id="FMb4IsS57maZO2ft8bvY-147" value="ชื่อ&amp;nbsp;" style="ellipse;whiteSpace=wrap;html=1;align=center;" parent="1" vertex="1">
          <mxGeometry x="140" y="1800" width="100" height="40" as="geometry" />
        </mxCell>
        <mxCell id="FMb4IsS57maZO2ft8bvY-148" value="เบอร์มือถือ" style="ellipse;whiteSpace=wrap;html=1;align=center;" parent="1" vertex="1">
          <mxGeometry x="20" y="1929" width="100" height="40" as="geometry" />
        </mxCell>
        <mxCell id="FMb4IsS57maZO2ft8bvY-149" value="อีเมลล์" style="ellipse;whiteSpace=wrap;html=1;align=center;" parent="1" vertex="1">
          <mxGeometry x="140" y="1960" width="100" height="40" as="geometry" />
        </mxCell>
        <mxCell id="FMb4IsS57maZO2ft8bvY-150" value="ที่อยู่" style="ellipse;whiteSpace=wrap;html=1;align=center;" parent="1" vertex="1">
          <mxGeometry x="260" y="1929" width="100" height="40" as="geometry" />
        </mxCell>
        <mxCell id="FMb4IsS57maZO2ft8bvY-151" value="" style="endArrow=none;html=1;rounded=0;exitX=0.5;exitY=1;exitDx=0;exitDy=0;entryX=0.5;entryY=0;entryDx=0;entryDy=0;" parent="1" source="FMb4IsS57maZO2ft8bvY-147" target="FMb4IsS57maZO2ft8bvY-144" edge="1">
          <mxGeometry relative="1" as="geometry">
            <mxPoint x="350" y="1820" as="sourcePoint" />
            <mxPoint x="510" y="1820" as="targetPoint" />
          </mxGeometry>
        </mxCell>
        <mxCell id="FMb4IsS57maZO2ft8bvY-152" value="" style="endArrow=none;html=1;rounded=0;exitX=0;exitY=1;exitDx=0;exitDy=0;entryX=1;entryY=0;entryDx=0;entryDy=0;" parent="1" source="FMb4IsS57maZO2ft8bvY-146" target="FMb4IsS57maZO2ft8bvY-144" edge="1">
          <mxGeometry relative="1" as="geometry">
            <mxPoint x="200" y="1850" as="sourcePoint" />
            <mxPoint x="200" y="1890" as="targetPoint" />
            <Array as="points">
              <mxPoint x="260" y="1860" />
            </Array>
          </mxGeometry>
        </mxCell>
        <mxCell id="FMb4IsS57maZO2ft8bvY-153" value="" style="endArrow=none;html=1;rounded=0;exitX=1;exitY=1;exitDx=0;exitDy=0;entryX=0;entryY=0;entryDx=0;entryDy=0;" parent="1" source="FMb4IsS57maZO2ft8bvY-145" target="FMb4IsS57maZO2ft8bvY-144" edge="1">
          <mxGeometry relative="1" as="geometry">
            <mxPoint x="210" y="1860" as="sourcePoint" />
            <mxPoint x="210" y="1900" as="targetPoint" />
          </mxGeometry>
        </mxCell>
        <mxCell id="FMb4IsS57maZO2ft8bvY-154" value="" style="endArrow=none;html=1;rounded=0;exitX=0;exitY=1;exitDx=0;exitDy=0;entryX=1;entryY=0;entryDx=0;entryDy=0;" parent="1" source="FMb4IsS57maZO2ft8bvY-144" target="FMb4IsS57maZO2ft8bvY-148" edge="1">
          <mxGeometry relative="1" as="geometry">
            <mxPoint x="220" y="1870" as="sourcePoint" />
            <mxPoint x="220" y="1910" as="targetPoint" />
          </mxGeometry>
        </mxCell>
        <mxCell id="FMb4IsS57maZO2ft8bvY-155" value="" style="endArrow=none;html=1;rounded=0;exitX=0.5;exitY=1;exitDx=0;exitDy=0;entryX=0.5;entryY=0;entryDx=0;entryDy=0;" parent="1" source="FMb4IsS57maZO2ft8bvY-144" target="FMb4IsS57maZO2ft8bvY-149" edge="1">
          <mxGeometry relative="1" as="geometry">
            <mxPoint x="230" y="1880" as="sourcePoint" />
            <mxPoint x="230" y="1920" as="targetPoint" />
          </mxGeometry>
        </mxCell>
        <mxCell id="FMb4IsS57maZO2ft8bvY-156" value="" style="endArrow=none;html=1;rounded=0;exitX=1;exitY=1;exitDx=0;exitDy=0;entryX=0.062;entryY=0.365;entryDx=0;entryDy=0;entryPerimeter=0;" parent="1" source="FMb4IsS57maZO2ft8bvY-144" target="FMb4IsS57maZO2ft8bvY-150" edge="1">
          <mxGeometry relative="1" as="geometry">
            <mxPoint x="240" y="1890" as="sourcePoint" />
            <mxPoint x="240" y="1930" as="targetPoint" />
          </mxGeometry>
        </mxCell>
        <mxCell id="FMb4IsS57maZO2ft8bvY-157" value="Entity Diagram" style="text;html=1;align=center;verticalAlign=middle;resizable=0;points=[];autosize=1;strokeColor=none;fillColor=none;" parent="1" vertex="1">
          <mxGeometry x="30" y="1758" width="100" height="30" as="geometry" />
        </mxCell>
        <mxCell id="FMb4IsS57maZO2ft8bvY-222" style="edgeStyle=orthogonalEdgeStyle;rounded=0;orthogonalLoop=1;jettySize=auto;html=1;exitX=1;exitY=0.5;exitDx=0;exitDy=0;entryX=0;entryY=0.25;entryDx=0;entryDy=0;endArrow=none;startFill=0;" parent="1" source="FMb4IsS57maZO2ft8bvY-158" target="FMb4IsS57maZO2ft8bvY-163" edge="1">
          <mxGeometry relative="1" as="geometry">
            <Array as="points">
              <mxPoint x="603" y="1899" />
              <mxPoint x="695" y="1900" />
            </Array>
          </mxGeometry>
        </mxCell>
        <mxCell id="FMb4IsS57maZO2ft8bvY-158" value="เป็นเจ้าของ" style="shape=rhombus;perimeter=rhombusPerimeter;whiteSpace=wrap;html=1;align=center;" parent="1" vertex="1">
          <mxGeometry x="390" y="1869" width="120" height="60" as="geometry" />
        </mxCell>
        <mxCell id="FMb4IsS57maZO2ft8bvY-223" style="edgeStyle=orthogonalEdgeStyle;rounded=0;orthogonalLoop=1;jettySize=auto;html=1;exitX=0.5;exitY=1;exitDx=0;exitDy=0;entryX=0.5;entryY=0;entryDx=0;entryDy=0;endArrow=none;startFill=0;" parent="1" source="FMb4IsS57maZO2ft8bvY-163" target="FMb4IsS57maZO2ft8bvY-219" edge="1">
          <mxGeometry relative="1" as="geometry" />
        </mxCell>
        <mxCell id="FMb4IsS57maZO2ft8bvY-226" style="edgeStyle=orthogonalEdgeStyle;rounded=0;orthogonalLoop=1;jettySize=auto;html=1;exitX=0.25;exitY=1;exitDx=0;exitDy=0;entryX=0.5;entryY=0;entryDx=0;entryDy=0;endArrow=none;startFill=0;" parent="1" source="FMb4IsS57maZO2ft8bvY-163" target="FMb4IsS57maZO2ft8bvY-220" edge="1">
          <mxGeometry relative="1" as="geometry" />
        </mxCell>
        <mxCell id="FMb4IsS57maZO2ft8bvY-163" value="บัญชี" style="whiteSpace=wrap;html=1;align=center;" parent="1" vertex="1">
          <mxGeometry x="695" y="1897.5" width="100" height="40" as="geometry" />
        </mxCell>
        <mxCell id="FMb4IsS57maZO2ft8bvY-164" style="edgeStyle=orthogonalEdgeStyle;rounded=0;orthogonalLoop=1;jettySize=auto;html=1;exitX=1;exitY=1;exitDx=0;exitDy=0;entryX=0;entryY=0;entryDx=0;entryDy=0;endArrow=none;startFill=0;" parent="1" source="FMb4IsS57maZO2ft8bvY-165" target="FMb4IsS57maZO2ft8bvY-163" edge="1">
          <mxGeometry relative="1" as="geometry">
            <Array as="points">
              <mxPoint x="655" y="1831.5" />
              <mxPoint x="655" y="1857.5" />
              <mxPoint x="695" y="1857.5" />
            </Array>
          </mxGeometry>
        </mxCell>
        <mxCell id="FMb4IsS57maZO2ft8bvY-165" value="รหัสบัญชี" style="ellipse;whiteSpace=wrap;html=1;align=center;" parent="1" vertex="1">
          <mxGeometry x="555" y="1797.5" width="100" height="40" as="geometry" />
        </mxCell>
        <mxCell id="FMb4IsS57maZO2ft8bvY-166" value="หมายเลขบัญชี" style="ellipse;whiteSpace=wrap;html=1;align=center;" parent="1" vertex="1">
          <mxGeometry x="685" y="1797.5" width="100" height="40" as="geometry" />
        </mxCell>
        <mxCell id="FMb4IsS57maZO2ft8bvY-167" value="ประเภทบัญชี" style="ellipse;whiteSpace=wrap;html=1;align=center;" parent="1" vertex="1">
          <mxGeometry x="795" y="1782.5" width="100" height="40" as="geometry" />
        </mxCell>
        <mxCell id="FMb4IsS57maZO2ft8bvY-168" style="edgeStyle=orthogonalEdgeStyle;rounded=0;orthogonalLoop=1;jettySize=auto;html=1;exitX=0;exitY=0.5;exitDx=0;exitDy=0;entryX=1;entryY=0.5;entryDx=0;entryDy=0;endArrow=none;startFill=0;" parent="1" source="FMb4IsS57maZO2ft8bvY-169" target="FMb4IsS57maZO2ft8bvY-163" edge="1">
          <mxGeometry relative="1" as="geometry" />
        </mxCell>
        <mxCell id="FMb4IsS57maZO2ft8bvY-169" value="ล็อคอินแอพ" style="ellipse;whiteSpace=wrap;html=1;align=center;" parent="1" vertex="1">
          <mxGeometry x="815" y="1897.5" width="100" height="40" as="geometry" />
        </mxCell>
        <mxCell id="FMb4IsS57maZO2ft8bvY-170" style="edgeStyle=orthogonalEdgeStyle;rounded=0;orthogonalLoop=1;jettySize=auto;html=1;exitX=0;exitY=0;exitDx=0;exitDy=0;entryX=1;entryY=1;entryDx=0;entryDy=0;endArrow=none;startFill=0;" parent="1" source="FMb4IsS57maZO2ft8bvY-171" target="FMb4IsS57maZO2ft8bvY-163" edge="1">
          <mxGeometry relative="1" as="geometry" />
        </mxCell>
        <mxCell id="FMb4IsS57maZO2ft8bvY-171" value="รหัสผ่านแอพ" style="ellipse;whiteSpace=wrap;html=1;align=center;" parent="1" vertex="1">
          <mxGeometry x="805" y="1957.5" width="100" height="40" as="geometry" />
        </mxCell>
        <mxCell id="FMb4IsS57maZO2ft8bvY-172" value="รหัสATM" style="ellipse;whiteSpace=wrap;html=1;align=center;" parent="1" vertex="1">
          <mxGeometry x="805" y="2000" width="100" height="40" as="geometry" />
        </mxCell>
        <mxCell id="FMb4IsS57maZO2ft8bvY-173" style="edgeStyle=orthogonalEdgeStyle;rounded=0;orthogonalLoop=1;jettySize=auto;html=1;exitX=1;exitY=0;exitDx=0;exitDy=0;entryX=0;entryY=1;entryDx=0;entryDy=0;endArrow=none;startFill=0;" parent="1" source="FMb4IsS57maZO2ft8bvY-174" target="FMb4IsS57maZO2ft8bvY-163" edge="1">
          <mxGeometry relative="1" as="geometry" />
        </mxCell>
        <mxCell id="FMb4IsS57maZO2ft8bvY-174" value="ยอดเงิน&lt;span style=&quot;color: rgba(0, 0, 0, 0); font-family: monospace; font-size: 0px; text-align: start; text-wrap-mode: nowrap;&quot;&gt;%3CmxGraphModel%3E%3Croot%3E%3CmxCell%20id%3D%220%22%2F%3E%3CmxCell%20id%3D%221%22%20parent%3D%220%22%2F%3E%3CmxCell%20id%3D%222%22%20value%3D%22%E0%B8%AB%E0%B8%A1%E0%B8%B2%E0%B8%A2%E0%B9%80%E0%B8%A5%E0%B8%82%E0%B8%9A%E0%B8%B1%E0%B8%8D%E0%B8%8A%E0%B8%B5%22%20style%3D%22ellipse%3BwhiteSpace%3Dwrap%3Bhtml%3D1%3Balign%3Dcenter%3B%22%20vertex%3D%221%22%20parent%3D%221%22%3E%3CmxGeometry%20x%3D%22570%22%20y%3D%221040%22%20width%3D%22100%22%20height%3D%2240%22%20as%3D%22geometry%22%2F%3E%3C%2FmxCell%3E%3C%2Froot%3E%3C%2FmxGraphModel%3E&lt;/span&gt;&lt;span style=&quot;color: rgba(0, 0, 0, 0); font-family: monospace; font-size: 0px; text-align: start; text-wrap-mode: nowrap;&quot;&gt;%3CmxGraphModel%3E%3Croot%3E%3CmxCell%20id%3D%220%22%2F%3E%3CmxCell%20id%3D%221%22%20parent%3D%220%22%2F%3E%3CmxCell%20id%3D%222%22%20value%3D%22%E0%B8%AB%E0%B8%A1%E0%B8%B2%E0%B8%A2%E0%B9%80%E0%B8%A5%E0%B8%82%E0%B8%9A%E0%B8%B1%E0%B8%8D%E0%B8%8A%E0%B8%B5%22%20style%3D%22ellipse%3BwhiteSpace%3Dwrap%3Bhtml%3D1%3Balign%3Dcenter%3B%22%20vertex%3D%221%22%20parent%3D%221%22%3E%3CmxGeometry%20x%3D%22570%22%20y%3D%221040%22%20width%3D%22100%22%20height%3D%2240%22%20as%3D%22geometry%22%2F%3E%3C%2FmxCell%3E%3C%2Froot%3E%3C%2FmxGraphModel%3E&lt;/span&gt;" style="ellipse;whiteSpace=wrap;html=1;align=center;" parent="1" vertex="1">
          <mxGeometry x="595" y="1957.5" width="100" height="40" as="geometry" />
        </mxCell>
        <mxCell id="FMb4IsS57maZO2ft8bvY-175" style="edgeStyle=orthogonalEdgeStyle;rounded=0;orthogonalLoop=1;jettySize=auto;html=1;exitX=1;exitY=0.5;exitDx=0;exitDy=0;entryX=0;entryY=0.75;entryDx=0;entryDy=0;endArrow=none;startFill=0;" parent="1" source="FMb4IsS57maZO2ft8bvY-176" target="FMb4IsS57maZO2ft8bvY-163" edge="1">
          <mxGeometry relative="1" as="geometry" />
        </mxCell>
        <mxCell id="FMb4IsS57maZO2ft8bvY-176" value="รหัสนักศึกษา" style="ellipse;whiteSpace=wrap;html=1;align=center;" parent="1" vertex="1">
          <mxGeometry x="560" y="1910" width="100" height="40" as="geometry" />
        </mxCell>
        <mxCell id="FMb4IsS57maZO2ft8bvY-177" style="edgeStyle=orthogonalEdgeStyle;rounded=0;orthogonalLoop=1;jettySize=auto;html=1;exitX=0;exitY=1;exitDx=0;exitDy=0;entryX=1;entryY=0.25;entryDx=0;entryDy=0;endArrow=none;startFill=0;" parent="1" source="FMb4IsS57maZO2ft8bvY-178" target="FMb4IsS57maZO2ft8bvY-163" edge="1">
          <mxGeometry relative="1" as="geometry" />
        </mxCell>
        <mxCell id="FMb4IsS57maZO2ft8bvY-178" value="เวลาที่เข้าสู่ระบบ" style="ellipse;whiteSpace=wrap;html=1;align=center;" parent="1" vertex="1">
          <mxGeometry x="825" y="1837.5" width="100" height="40" as="geometry" />
        </mxCell>
        <mxCell id="FMb4IsS57maZO2ft8bvY-179" style="edgeStyle=orthogonalEdgeStyle;rounded=0;orthogonalLoop=1;jettySize=auto;html=1;exitX=0.5;exitY=1;exitDx=0;exitDy=0;entryX=0.397;entryY=0.077;entryDx=0;entryDy=0;entryPerimeter=0;endArrow=none;startFill=0;" parent="1" source="FMb4IsS57maZO2ft8bvY-166" target="FMb4IsS57maZO2ft8bvY-163" edge="1">
          <mxGeometry relative="1" as="geometry" />
        </mxCell>
        <mxCell id="FMb4IsS57maZO2ft8bvY-180" style="edgeStyle=orthogonalEdgeStyle;rounded=0;orthogonalLoop=1;jettySize=auto;html=1;exitX=0;exitY=1;exitDx=0;exitDy=0;entryX=0.884;entryY=-0.01;entryDx=0;entryDy=0;entryPerimeter=0;endArrow=none;startFill=0;" parent="1" source="FMb4IsS57maZO2ft8bvY-167" target="FMb4IsS57maZO2ft8bvY-163" edge="1">
          <mxGeometry relative="1" as="geometry" />
        </mxCell>
        <mxCell id="FMb4IsS57maZO2ft8bvY-181" style="edgeStyle=orthogonalEdgeStyle;rounded=0;orthogonalLoop=1;jettySize=auto;html=1;entryX=0.949;entryY=1.007;entryDx=0;entryDy=0;entryPerimeter=0;endArrow=none;startFill=0;" parent="1" source="FMb4IsS57maZO2ft8bvY-172" target="FMb4IsS57maZO2ft8bvY-163" edge="1">
          <mxGeometry relative="1" as="geometry">
            <Array as="points">
              <mxPoint x="790" y="2020" />
            </Array>
          </mxGeometry>
        </mxCell>
        <mxCell id="FMb4IsS57maZO2ft8bvY-182" style="edgeStyle=orthogonalEdgeStyle;rounded=0;orthogonalLoop=1;jettySize=auto;html=1;exitX=0;exitY=0.5;exitDx=0;exitDy=0;entryX=1;entryY=0.5;entryDx=0;entryDy=0;endArrow=none;startFill=0;" parent="1" source="FMb4IsS57maZO2ft8bvY-183" target="FMb4IsS57maZO2ft8bvY-184" edge="1">
          <mxGeometry relative="1" as="geometry" />
        </mxCell>
        <mxCell id="FMb4IsS57maZO2ft8bvY-224" style="edgeStyle=orthogonalEdgeStyle;rounded=0;orthogonalLoop=1;jettySize=auto;html=1;exitX=1;exitY=0.5;exitDx=0;exitDy=0;entryX=0;entryY=0.5;entryDx=0;entryDy=0;endArrow=none;startFill=0;" parent="1" source="FMb4IsS57maZO2ft8bvY-183" target="FMb4IsS57maZO2ft8bvY-219" edge="1">
          <mxGeometry relative="1" as="geometry">
            <Array as="points">
              <mxPoint x="490" y="2090" />
            </Array>
          </mxGeometry>
        </mxCell>
        <mxCell id="FMb4IsS57maZO2ft8bvY-183" value="ATM" style="whiteSpace=wrap;html=1;align=center;" parent="1" vertex="1">
          <mxGeometry x="390" y="2060" width="100" height="40" as="geometry" />
        </mxCell>
        <mxCell id="FMb4IsS57maZO2ft8bvY-184" value="รหัสเครื่องATM" style="ellipse;whiteSpace=wrap;html=1;align=center;" parent="1" vertex="1">
          <mxGeometry x="260" y="2060" width="100" height="40" as="geometry" />
        </mxCell>
        <mxCell id="FMb4IsS57maZO2ft8bvY-185" value="สถานที่ตั้งเครื่อง" style="ellipse;whiteSpace=wrap;html=1;align=center;" parent="1" vertex="1">
          <mxGeometry x="313" y="1993" width="100" height="40" as="geometry" />
        </mxCell>
        <mxCell id="FMb4IsS57maZO2ft8bvY-186" style="edgeStyle=orthogonalEdgeStyle;rounded=0;orthogonalLoop=1;jettySize=auto;html=1;exitX=0.5;exitY=1;exitDx=0;exitDy=0;entryX=0.597;entryY=0.095;entryDx=0;entryDy=0;entryPerimeter=0;endArrow=none;startFill=0;" parent="1" source="FMb4IsS57maZO2ft8bvY-185" target="FMb4IsS57maZO2ft8bvY-183" edge="1">
          <mxGeometry relative="1" as="geometry">
            <Array as="points">
              <mxPoint x="363" y="2053" />
              <mxPoint x="433" y="2053" />
              <mxPoint x="433" y="2060" />
              <mxPoint x="450" y="2060" />
            </Array>
          </mxGeometry>
        </mxCell>
        <mxCell id="FMb4IsS57maZO2ft8bvY-188" style="edgeStyle=orthogonalEdgeStyle;rounded=0;orthogonalLoop=1;jettySize=auto;html=1;exitX=0.5;exitY=0;exitDx=0;exitDy=0;entryX=0.5;entryY=1;entryDx=0;entryDy=0;endArrow=none;startFill=0;" parent="1" source="FMb4IsS57maZO2ft8bvY-192" target="FMb4IsS57maZO2ft8bvY-194" edge="1">
          <mxGeometry relative="1" as="geometry" />
        </mxCell>
        <mxCell id="FMb4IsS57maZO2ft8bvY-189" style="edgeStyle=orthogonalEdgeStyle;rounded=0;orthogonalLoop=1;jettySize=auto;html=1;exitX=0;exitY=0;exitDx=0;exitDy=0;endArrow=none;startFill=0;" parent="1" source="FMb4IsS57maZO2ft8bvY-192" target="FMb4IsS57maZO2ft8bvY-193" edge="1">
          <mxGeometry relative="1" as="geometry" />
        </mxCell>
        <mxCell id="FMb4IsS57maZO2ft8bvY-190" style="edgeStyle=orthogonalEdgeStyle;rounded=0;orthogonalLoop=1;jettySize=auto;html=1;exitX=1;exitY=0.5;exitDx=0;exitDy=0;endArrow=none;startFill=0;" parent="1" source="FMb4IsS57maZO2ft8bvY-192" target="FMb4IsS57maZO2ft8bvY-195" edge="1">
          <mxGeometry relative="1" as="geometry" />
        </mxCell>
        <mxCell id="FMb4IsS57maZO2ft8bvY-191" style="edgeStyle=orthogonalEdgeStyle;rounded=0;orthogonalLoop=1;jettySize=auto;html=1;exitX=0.5;exitY=1;exitDx=0;exitDy=0;entryX=1;entryY=0.5;entryDx=0;entryDy=0;endArrow=none;startFill=0;" parent="1" source="FMb4IsS57maZO2ft8bvY-192" target="FMb4IsS57maZO2ft8bvY-196" edge="1">
          <mxGeometry relative="1" as="geometry" />
        </mxCell>
        <mxCell id="FMb4IsS57maZO2ft8bvY-192" value="แอปธนาคาร" style="whiteSpace=wrap;html=1;align=center;" parent="1" vertex="1">
          <mxGeometry x="957" y="2140" width="100" height="40" as="geometry" />
        </mxCell>
        <mxCell id="FMb4IsS57maZO2ft8bvY-193" value="รหัสแอปธนาคาร" style="ellipse;whiteSpace=wrap;html=1;align=center;" parent="1" vertex="1">
          <mxGeometry x="837" y="2060" width="100" height="40" as="geometry" />
        </mxCell>
        <mxCell id="FMb4IsS57maZO2ft8bvY-194" value="เบอร์โทรศัพท์" style="ellipse;whiteSpace=wrap;html=1;align=center;" parent="1" vertex="1">
          <mxGeometry x="957" y="2060" width="100" height="40" as="geometry" />
        </mxCell>
        <mxCell id="FMb4IsS57maZO2ft8bvY-195" value="ชื่อผู้ใช้งาน" style="ellipse;whiteSpace=wrap;html=1;align=center;" parent="1" vertex="1">
          <mxGeometry x="1090" y="2140" width="100" height="40" as="geometry" />
        </mxCell>
        <mxCell id="FMb4IsS57maZO2ft8bvY-196" value="รหัสผ่าน" style="ellipse;whiteSpace=wrap;html=1;align=center;" parent="1" vertex="1">
          <mxGeometry x="867" y="2210" width="100" height="40" as="geometry" />
        </mxCell>
        <mxCell id="FMb4IsS57maZO2ft8bvY-197" style="edgeStyle=orthogonalEdgeStyle;rounded=0;orthogonalLoop=1;jettySize=auto;html=1;exitX=0.5;exitY=0;exitDx=0;exitDy=0;endArrow=none;startFill=0;" parent="1" source="FMb4IsS57maZO2ft8bvY-200" target="FMb4IsS57maZO2ft8bvY-206" edge="1">
          <mxGeometry relative="1" as="geometry" />
        </mxCell>
        <mxCell id="FMb4IsS57maZO2ft8bvY-198" style="edgeStyle=orthogonalEdgeStyle;rounded=0;orthogonalLoop=1;jettySize=auto;html=1;exitX=1;exitY=0;exitDx=0;exitDy=0;entryX=0.5;entryY=0;entryDx=0;entryDy=0;endArrow=none;startFill=0;" parent="1" source="FMb4IsS57maZO2ft8bvY-200" target="FMb4IsS57maZO2ft8bvY-207" edge="1">
          <mxGeometry relative="1" as="geometry">
            <Array as="points">
              <mxPoint x="487" y="2240" />
              <mxPoint x="677" y="2240" />
            </Array>
          </mxGeometry>
        </mxCell>
        <mxCell id="FMb4IsS57maZO2ft8bvY-199" style="edgeStyle=orthogonalEdgeStyle;rounded=0;orthogonalLoop=1;jettySize=auto;html=1;exitX=0;exitY=0.5;exitDx=0;exitDy=0;entryX=0.5;entryY=0;entryDx=0;entryDy=0;endArrow=none;startFill=0;" parent="1" source="FMb4IsS57maZO2ft8bvY-200" target="FMb4IsS57maZO2ft8bvY-214" edge="1">
          <mxGeometry relative="1" as="geometry" />
        </mxCell>
        <mxCell id="FMb4IsS57maZO2ft8bvY-230" style="edgeStyle=orthogonalEdgeStyle;rounded=0;orthogonalLoop=1;jettySize=auto;html=1;exitX=0.75;exitY=0;exitDx=0;exitDy=0;entryX=0.5;entryY=1;entryDx=0;entryDy=0;endArrow=none;startFill=0;" parent="1" source="FMb4IsS57maZO2ft8bvY-200" target="FMb4IsS57maZO2ft8bvY-220" edge="1">
          <mxGeometry relative="1" as="geometry">
            <Array as="points">
              <mxPoint x="462" y="2220" />
              <mxPoint x="577" y="2220" />
            </Array>
          </mxGeometry>
        </mxCell>
        <mxCell id="FMb4IsS57maZO2ft8bvY-237" style="edgeStyle=orthogonalEdgeStyle;rounded=0;orthogonalLoop=1;jettySize=auto;html=1;exitX=0.75;exitY=1;exitDx=0;exitDy=0;entryX=0;entryY=0.5;entryDx=0;entryDy=0;endArrow=none;startFill=0;" parent="1" source="FMb4IsS57maZO2ft8bvY-200" target="FMb4IsS57maZO2ft8bvY-236" edge="1">
          <mxGeometry relative="1" as="geometry" />
        </mxCell>
        <mxCell id="FMb4IsS57maZO2ft8bvY-278" style="edgeStyle=orthogonalEdgeStyle;rounded=0;orthogonalLoop=1;jettySize=auto;html=1;exitX=0.5;exitY=1;exitDx=0;exitDy=0;entryX=0;entryY=0.5;entryDx=0;entryDy=0;endArrow=none;startFill=0;" parent="1" source="FMb4IsS57maZO2ft8bvY-200" target="FMb4IsS57maZO2ft8bvY-277" edge="1">
          <mxGeometry relative="1" as="geometry">
            <Array as="points">
              <mxPoint x="437" y="2390" />
            </Array>
          </mxGeometry>
        </mxCell>
        <mxCell id="FMb4IsS57maZO2ft8bvY-200" value="ธุรกรรม" style="whiteSpace=wrap;html=1;align=center;" parent="1" vertex="1">
          <mxGeometry x="387" y="2270" width="100" height="40" as="geometry" />
        </mxCell>
        <mxCell id="FMb4IsS57maZO2ft8bvY-201" style="edgeStyle=orthogonalEdgeStyle;rounded=0;orthogonalLoop=1;jettySize=auto;html=1;exitX=0.5;exitY=0;exitDx=0;exitDy=0;entryX=0;entryY=0.5;entryDx=0;entryDy=0;endArrow=none;startFill=0;" parent="1" source="FMb4IsS57maZO2ft8bvY-203" target="FMb4IsS57maZO2ft8bvY-216" edge="1">
          <mxGeometry relative="1" as="geometry" />
        </mxCell>
        <mxCell id="FMb4IsS57maZO2ft8bvY-202" style="edgeStyle=orthogonalEdgeStyle;rounded=0;orthogonalLoop=1;jettySize=auto;html=1;exitX=1;exitY=0.5;exitDx=0;exitDy=0;entryX=0.5;entryY=0;entryDx=0;entryDy=0;endArrow=none;startFill=0;" parent="1" source="FMb4IsS57maZO2ft8bvY-203" target="FMb4IsS57maZO2ft8bvY-217" edge="1">
          <mxGeometry relative="1" as="geometry" />
        </mxCell>
        <mxCell id="FMb4IsS57maZO2ft8bvY-228" style="edgeStyle=orthogonalEdgeStyle;rounded=0;orthogonalLoop=1;jettySize=auto;html=1;exitX=0.5;exitY=1;exitDx=0;exitDy=0;entryX=0;entryY=0.5;entryDx=0;entryDy=0;endArrow=none;startFill=0;" parent="1" source="FMb4IsS57maZO2ft8bvY-203" target="FMb4IsS57maZO2ft8bvY-227" edge="1">
          <mxGeometry relative="1" as="geometry" />
        </mxCell>
        <mxCell id="FMb4IsS57maZO2ft8bvY-203" value="แปลงสกุลเงิน" style="whiteSpace=wrap;html=1;align=center;" parent="1" vertex="1">
          <mxGeometry x="20" y="2248" width="100" height="40" as="geometry" />
        </mxCell>
        <mxCell id="FMb4IsS57maZO2ft8bvY-204" style="edgeStyle=orthogonalEdgeStyle;rounded=0;orthogonalLoop=1;jettySize=auto;html=1;exitX=1;exitY=1;exitDx=0;exitDy=0;entryX=0;entryY=0;entryDx=0;entryDy=0;endArrow=none;startFill=0;" parent="1" source="FMb4IsS57maZO2ft8bvY-205" target="FMb4IsS57maZO2ft8bvY-200" edge="1">
          <mxGeometry relative="1" as="geometry" />
        </mxCell>
        <mxCell id="FMb4IsS57maZO2ft8bvY-205" value="รหัสรายการธุรกรรม" style="ellipse;whiteSpace=wrap;html=1;align=center;" parent="1" vertex="1">
          <mxGeometry x="287" y="2190" width="100" height="40" as="geometry" />
        </mxCell>
        <mxCell id="FMb4IsS57maZO2ft8bvY-206" value="ประเภทธุรกรรม " style="ellipse;whiteSpace=wrap;html=1;align=center;" parent="1" vertex="1">
          <mxGeometry x="350" y="2140" width="100" height="40" as="geometry" />
        </mxCell>
        <mxCell id="FMb4IsS57maZO2ft8bvY-207" value="จำนวนเงิน" style="ellipse;whiteSpace=wrap;html=1;align=center;" parent="1" vertex="1">
          <mxGeometry x="627" y="2270" width="100" height="40" as="geometry" />
        </mxCell>
        <mxCell id="FMb4IsS57maZO2ft8bvY-208" style="edgeStyle=orthogonalEdgeStyle;rounded=0;orthogonalLoop=1;jettySize=auto;html=1;exitX=0;exitY=0.5;exitDx=0;exitDy=0;entryX=1;entryY=0.5;entryDx=0;entryDy=0;endArrow=none;startFill=0;" parent="1" source="FMb4IsS57maZO2ft8bvY-209" target="FMb4IsS57maZO2ft8bvY-200" edge="1">
          <mxGeometry relative="1" as="geometry" />
        </mxCell>
        <mxCell id="FMb4IsS57maZO2ft8bvY-209" value="วัน-เวลาที่ทำรายการ" style="ellipse;whiteSpace=wrap;html=1;align=center;" parent="1" vertex="1">
          <mxGeometry x="527" y="2250" width="100" height="40" as="geometry" />
        </mxCell>
        <mxCell id="FMb4IsS57maZO2ft8bvY-210" style="edgeStyle=orthogonalEdgeStyle;rounded=0;orthogonalLoop=1;jettySize=auto;html=1;exitX=0;exitY=0.5;exitDx=0;exitDy=0;entryX=1;entryY=0.75;entryDx=0;entryDy=0;endArrow=none;startFill=0;" parent="1" source="FMb4IsS57maZO2ft8bvY-211" target="FMb4IsS57maZO2ft8bvY-200" edge="1">
          <mxGeometry relative="1" as="geometry" />
        </mxCell>
        <mxCell id="FMb4IsS57maZO2ft8bvY-211" value="รหัสเครื่องATM" style="ellipse;whiteSpace=wrap;html=1;align=center;" parent="1" vertex="1">
          <mxGeometry x="527" y="2310" width="80" height="40" as="geometry" />
        </mxCell>
        <mxCell id="FMb4IsS57maZO2ft8bvY-212" style="edgeStyle=orthogonalEdgeStyle;rounded=0;orthogonalLoop=1;jettySize=auto;html=1;exitX=0.5;exitY=0;exitDx=0;exitDy=0;entryX=0.25;entryY=1;entryDx=0;entryDy=0;endArrow=none;startFill=0;" parent="1" source="FMb4IsS57maZO2ft8bvY-213" target="FMb4IsS57maZO2ft8bvY-200" edge="1">
          <mxGeometry relative="1" as="geometry" />
        </mxCell>
        <mxCell id="FMb4IsS57maZO2ft8bvY-213" value="รหัสบัญชี" style="ellipse;whiteSpace=wrap;html=1;align=center;" parent="1" vertex="1">
          <mxGeometry x="364" y="2400" width="100" height="40" as="geometry" />
        </mxCell>
        <mxCell id="FMb4IsS57maZO2ft8bvY-214" value="รหัสแอปธนาคาร" style="ellipse;whiteSpace=wrap;html=1;align=center;" parent="1" vertex="1">
          <mxGeometry x="277" y="2310" width="100" height="40" as="geometry" />
        </mxCell>
        <mxCell id="FMb4IsS57maZO2ft8bvY-215" value="รหัสสกุลเงิน" style="ellipse;whiteSpace=wrap;html=1;align=center;" parent="1" vertex="1">
          <mxGeometry x="-50" y="2188" width="100" height="40" as="geometry" />
        </mxCell>
        <mxCell id="FMb4IsS57maZO2ft8bvY-216" value="ชื่อสกุลเงิน" style="ellipse;whiteSpace=wrap;html=1;align=center;" parent="1" vertex="1">
          <mxGeometry x="100" y="2188" width="100" height="40" as="geometry" />
        </mxCell>
        <mxCell id="FMb4IsS57maZO2ft8bvY-217" value="อัตราการแลกเปลี่ยนค่าเงิน" style="ellipse;whiteSpace=wrap;html=1;align=center;" parent="1" vertex="1">
          <mxGeometry x="120" y="2298" width="100" height="40" as="geometry" />
        </mxCell>
        <mxCell id="FMb4IsS57maZO2ft8bvY-218" style="edgeStyle=orthogonalEdgeStyle;rounded=0;orthogonalLoop=1;jettySize=auto;html=1;exitX=0;exitY=0.5;exitDx=0;exitDy=0;entryX=0.44;entryY=1.047;entryDx=0;entryDy=0;entryPerimeter=0;endArrow=none;startFill=0;" parent="1" source="FMb4IsS57maZO2ft8bvY-203" target="FMb4IsS57maZO2ft8bvY-215" edge="1">
          <mxGeometry relative="1" as="geometry" />
        </mxCell>
        <mxCell id="FMb4IsS57maZO2ft8bvY-225" style="edgeStyle=orthogonalEdgeStyle;rounded=0;orthogonalLoop=1;jettySize=auto;html=1;exitX=1;exitY=0.5;exitDx=0;exitDy=0;entryX=0;entryY=0.5;entryDx=0;entryDy=0;endArrow=none;startFill=0;" parent="1" source="FMb4IsS57maZO2ft8bvY-219" target="FMb4IsS57maZO2ft8bvY-192" edge="1">
          <mxGeometry relative="1" as="geometry">
            <Array as="points">
              <mxPoint x="795" y="2160" />
            </Array>
          </mxGeometry>
        </mxCell>
        <mxCell id="FMb4IsS57maZO2ft8bvY-219" value="ทำการเข้าสู่ระบบ" style="shape=rhombus;perimeter=rhombusPerimeter;whiteSpace=wrap;html=1;align=center;" parent="1" vertex="1">
          <mxGeometry x="675" y="2060" width="120" height="60" as="geometry" />
        </mxCell>
        <mxCell id="FMb4IsS57maZO2ft8bvY-220" value="สามารถ" style="shape=rhombus;perimeter=rhombusPerimeter;whiteSpace=wrap;html=1;align=center;" parent="1" vertex="1">
          <mxGeometry x="517" y="2150" width="120" height="60" as="geometry" />
        </mxCell>
        <mxCell id="FMb4IsS57maZO2ft8bvY-229" style="edgeStyle=orthogonalEdgeStyle;rounded=0;orthogonalLoop=1;jettySize=auto;html=1;exitX=1;exitY=0.5;exitDx=0;exitDy=0;entryX=0;entryY=1;entryDx=0;entryDy=0;endArrow=none;startFill=0;" parent="1" source="FMb4IsS57maZO2ft8bvY-227" target="FMb4IsS57maZO2ft8bvY-200" edge="1">
          <mxGeometry relative="1" as="geometry" />
        </mxCell>
        <mxCell id="FMb4IsS57maZO2ft8bvY-227" value="สามารถ" style="shape=rhombus;perimeter=rhombusPerimeter;whiteSpace=wrap;html=1;align=center;" parent="1" vertex="1">
          <mxGeometry x="180" y="2370" width="120" height="60" as="geometry" />
        </mxCell>
        <mxCell id="FMb4IsS57maZO2ft8bvY-231" value="1" style="text;html=1;align=center;verticalAlign=middle;resizable=0;points=[];autosize=1;strokeColor=none;fillColor=none;" parent="1" vertex="1">
          <mxGeometry x="345" y="1868" width="30" height="30" as="geometry" />
        </mxCell>
        <mxCell id="FMb4IsS57maZO2ft8bvY-232" value="M" style="text;html=1;align=center;verticalAlign=middle;resizable=0;points=[];autosize=1;strokeColor=none;fillColor=none;" parent="1" vertex="1">
          <mxGeometry x="595" y="1868" width="30" height="30" as="geometry" />
        </mxCell>
        <mxCell id="FMb4IsS57maZO2ft8bvY-233" value="1" style="text;html=1;align=center;verticalAlign=middle;resizable=0;points=[];autosize=1;strokeColor=none;fillColor=none;" parent="1" vertex="1">
          <mxGeometry x="725" y="1998" width="30" height="30" as="geometry" />
        </mxCell>
        <mxCell id="FMb4IsS57maZO2ft8bvY-234" value="M" style="text;html=1;align=center;verticalAlign=middle;resizable=0;points=[];autosize=1;strokeColor=none;fillColor=none;" parent="1" vertex="1">
          <mxGeometry x="605" y="2068" width="30" height="30" as="geometry" />
        </mxCell>
        <mxCell id="FMb4IsS57maZO2ft8bvY-235" value="M" style="text;html=1;align=center;verticalAlign=middle;resizable=0;points=[];autosize=1;strokeColor=none;fillColor=none;" parent="1" vertex="1">
          <mxGeometry x="885" y="2138" width="30" height="30" as="geometry" />
        </mxCell>
        <mxCell id="FMb4IsS57maZO2ft8bvY-238" style="edgeStyle=orthogonalEdgeStyle;rounded=0;orthogonalLoop=1;jettySize=auto;html=1;exitX=1;exitY=0.5;exitDx=0;exitDy=0;entryX=0.75;entryY=1;entryDx=0;entryDy=0;endArrow=none;startFill=0;" parent="1" source="FMb4IsS57maZO2ft8bvY-236" target="FMb4IsS57maZO2ft8bvY-192" edge="1">
          <mxGeometry relative="1" as="geometry" />
        </mxCell>
        <mxCell id="FMb4IsS57maZO2ft8bvY-236" value="สามารถ" style="shape=rhombus;perimeter=rhombusPerimeter;whiteSpace=wrap;html=1;align=center;" parent="1" vertex="1">
          <mxGeometry x="680" y="2330" width="120" height="60" as="geometry" />
        </mxCell>
        <mxCell id="FMb4IsS57maZO2ft8bvY-239" value="1" style="text;html=1;align=center;verticalAlign=middle;resizable=0;points=[];autosize=1;strokeColor=none;fillColor=none;" parent="1" vertex="1">
          <mxGeometry x="625" y="2018" width="30" height="30" as="geometry" />
        </mxCell>
        <mxCell id="FMb4IsS57maZO2ft8bvY-240" value="M" style="text;html=1;align=center;verticalAlign=middle;resizable=0;points=[];autosize=1;strokeColor=none;fillColor=none;" parent="1" vertex="1">
          <mxGeometry x="575" y="2118" width="30" height="30" as="geometry" />
        </mxCell>
        <mxCell id="FMb4IsS57maZO2ft8bvY-241" value="M" style="text;html=1;align=center;verticalAlign=middle;resizable=0;points=[];autosize=1;strokeColor=none;fillColor=none;" parent="1" vertex="1">
          <mxGeometry x="85" y="2368" width="30" height="30" as="geometry" />
        </mxCell>
        <mxCell id="FMb4IsS57maZO2ft8bvY-242" value="M" style="text;html=1;align=center;verticalAlign=middle;resizable=0;points=[];autosize=1;strokeColor=none;fillColor=none;" parent="1" vertex="1">
          <mxGeometry x="335" y="2368" width="30" height="30" as="geometry" />
        </mxCell>
        <mxCell id="FMb4IsS57maZO2ft8bvY-243" value="M" style="text;html=1;align=center;verticalAlign=middle;resizable=0;points=[];autosize=1;strokeColor=none;fillColor=none;" parent="1" vertex="1">
          <mxGeometry x="595" y="2358" width="30" height="30" as="geometry" />
        </mxCell>
        <mxCell id="FMb4IsS57maZO2ft8bvY-244" value="1" style="text;html=1;align=center;verticalAlign=middle;resizable=0;points=[];autosize=1;strokeColor=none;fillColor=none;" parent="1" vertex="1">
          <mxGeometry x="955" y="2328" width="30" height="30" as="geometry" />
        </mxCell>
        <mxCell id="FMb4IsS57maZO2ft8bvY-246" value="Logical" style="text;html=1;align=center;verticalAlign=middle;resizable=0;points=[];autosize=1;strokeColor=none;fillColor=none;fontSize=20;" parent="1" vertex="1">
          <mxGeometry x="-5" y="2523" width="90" height="40" as="geometry" />
        </mxCell>
        <mxCell id="FMb4IsS57maZO2ft8bvY-247" value="รหัสนักศึกษา" style="whiteSpace=wrap;html=1;align=center;" parent="1" vertex="1">
          <mxGeometry x="80" y="2600" width="100" height="40" as="geometry" />
        </mxCell>
        <mxCell id="FMb4IsS57maZO2ft8bvY-248" value="นักศึกษา" style="text;html=1;align=center;verticalAlign=middle;resizable=0;points=[];autosize=1;strokeColor=none;fillColor=none;" parent="1" vertex="1">
          <mxGeometry x="55" y="2578" width="70" height="30" as="geometry" />
        </mxCell>
        <mxCell id="FMb4IsS57maZO2ft8bvY-249" value="ชื่อ" style="whiteSpace=wrap;html=1;align=center;" parent="1" vertex="1">
          <mxGeometry x="180" y="2600" width="100" height="40" as="geometry" />
        </mxCell>
        <mxCell id="FMb4IsS57maZO2ft8bvY-250" value="นามสกุล" style="whiteSpace=wrap;html=1;align=center;" parent="1" vertex="1">
          <mxGeometry x="280" y="2600" width="100" height="40" as="geometry" />
        </mxCell>
        <mxCell id="FMb4IsS57maZO2ft8bvY-251" value="เบอร์มือถือ" style="whiteSpace=wrap;html=1;align=center;" parent="1" vertex="1">
          <mxGeometry x="380" y="2600" width="100" height="40" as="geometry" />
        </mxCell>
        <mxCell id="FMb4IsS57maZO2ft8bvY-252" value="อีเมล" style="whiteSpace=wrap;html=1;align=center;" parent="1" vertex="1">
          <mxGeometry x="480" y="2600" width="100" height="40" as="geometry" />
        </mxCell>
        <mxCell id="FMb4IsS57maZO2ft8bvY-253" value="ที่อยู่" style="whiteSpace=wrap;html=1;align=center;" parent="1" vertex="1">
          <mxGeometry x="580" y="2600" width="100" height="40" as="geometry" />
        </mxCell>
        <mxCell id="FMb4IsS57maZO2ft8bvY-254" value="รหัสบัญชี" style="rounded=1;arcSize=10;whiteSpace=wrap;html=1;align=center;" parent="1" vertex="1">
          <mxGeometry x="160" y="2680" width="100" height="40" as="geometry" />
        </mxCell>
        <mxCell id="FMb4IsS57maZO2ft8bvY-255" value="หมายเลขบัญชี" style="rounded=1;arcSize=10;whiteSpace=wrap;html=1;align=center;" parent="1" vertex="1">
          <mxGeometry x="260" y="2680" width="100" height="40" as="geometry" />
        </mxCell>
        <mxCell id="FMb4IsS57maZO2ft8bvY-256" value="ประเภทบัญชี" style="rounded=1;arcSize=10;whiteSpace=wrap;html=1;align=center;" parent="1" vertex="1">
          <mxGeometry x="360" y="2680" width="100" height="40" as="geometry" />
        </mxCell>
        <mxCell id="FMb4IsS57maZO2ft8bvY-257" value="เวลาที่เข้าสู่ระบบ" style="rounded=1;arcSize=10;whiteSpace=wrap;html=1;align=center;" parent="1" vertex="1">
          <mxGeometry x="460" y="2680" width="100" height="40" as="geometry" />
        </mxCell>
        <mxCell id="FMb4IsS57maZO2ft8bvY-258" value="ล็อคอินแอพ" style="rounded=1;arcSize=10;whiteSpace=wrap;html=1;align=center;" parent="1" vertex="1">
          <mxGeometry x="560" y="2680" width="100" height="40" as="geometry" />
        </mxCell>
        <mxCell id="FMb4IsS57maZO2ft8bvY-259" value="รหัสผ่านแอพ" style="rounded=1;arcSize=10;whiteSpace=wrap;html=1;align=center;" parent="1" vertex="1">
          <mxGeometry x="660" y="2680" width="100" height="40" as="geometry" />
        </mxCell>
        <mxCell id="FMb4IsS57maZO2ft8bvY-260" value="รหัสATM" style="rounded=1;arcSize=10;whiteSpace=wrap;html=1;align=center;" parent="1" vertex="1">
          <mxGeometry x="760" y="2680" width="100" height="40" as="geometry" />
        </mxCell>
        <mxCell id="FMb4IsS57maZO2ft8bvY-261" value="ยอดเงิน&lt;span style=&quot;--tw-scale-x: 1; --tw-scale-y: 1; --tw-pan-x: ; --tw-pan-y: ; --tw-pinch-zoom: ; --tw-scroll-snap-strictness: proximity; --tw-ordinal: ; --tw-slashed-zero: ; --tw-numeric-figure: ; --tw-numeric-spacing: ; --tw-numeric-fraction: ; --tw-ring-inset: ; --tw-ring-offset-width: 0px; --tw-ring-offset-color: #fff; --tw-ring-color: rgb(59 130 246 / .5); --tw-ring-offset-shadow: 0 0 #0000; --tw-ring-shadow: 0 0 #0000; --tw-shadow: 0 0 #0000; --tw-shadow-colored: 0 0 #0000; --tw-blur: ; --tw-brightness: ; --tw-contrast: ; --tw-grayscale: ; --tw-hue-rotate: ; --tw-invert: ; --tw-saturate: ; --tw-sepia: ; --tw-drop-shadow: ; --tw-backdrop-blur: ; --tw-backdrop-brightness: ; --tw-backdrop-contrast: ; --tw-backdrop-grayscale: ; --tw-backdrop-hue-rotate: ; --tw-backdrop-invert: ; --tw-backdrop-opacity: ; --tw-backdrop-saturate: ; --tw-backdrop-sepia: ; text-wrap-mode: nowrap; color: rgba(0, 0, 0, 0); font-family: monospace; font-size: 0px; text-align: start;&quot;&gt;%3CmxGraphModel%3E%3Croot%3E%3CmxCell%20id%3D%220%22%2F%3E%3CmxCell%20id%3D%221%22%20parent%3D%220%22%2F%3E%3CmxCell%20id%3D%222%22%20value%3D%22%E0%B8%AB%E0%B8%A1%E0%B8%B2%E0%B8%A2%E0%B9%80%E0%B8%A5%E0%B8%82%E0%B8%9A%E0%B8%B1%E0%B8%8D%E0%B8%8A%E0%B8%B5%22%20style%3D%22ellipse%3BwhiteSpace%3Dwrap%3Bhtml%3D1%3Balign%3Dcenter%3B%22%20vertex%3D%221%22%20parent%3D%221%22%3E%3CmxGeometry%20x%3D%22570%22%20y%3D%221040%22%20width%3D%22100%22%20height%3D%2240%22%20as%3D%22geometry%22%2F%3E%3C%2FmxCell%3E%3C%2Froot%3E%3C%2FmxGraphModel%3E&lt;/span&gt;&lt;span style=&quot;--tw-scale-x: 1; --tw-scale-y: 1; --tw-pan-x: ; --tw-pan-y: ; --tw-pinch-zoom: ; --tw-scroll-snap-strictness: proximity; --tw-ordinal: ; --tw-slashed-zero: ; --tw-numeric-figure: ; --tw-numeric-spacing: ; --tw-numeric-fraction: ; --tw-ring-inset: ; --tw-ring-offset-width: 0px; --tw-ring-offset-color: #fff; --tw-ring-color: rgb(59 130 246 / .5); --tw-ring-offset-shadow: 0 0 #0000; --tw-ring-shadow: 0 0 #0000; --tw-shadow: 0 0 #0000; --tw-shadow-colored: 0 0 #0000; --tw-blur: ; --tw-brightness: ; --tw-contrast: ; --tw-grayscale: ; --tw-hue-rotate: ; --tw-invert: ; --tw-saturate: ; --tw-sepia: ; --tw-drop-shadow: ; --tw-backdrop-blur: ; --tw-backdrop-brightness: ; --tw-backdrop-contrast: ; --tw-backdrop-grayscale: ; --tw-backdrop-hue-rotate: ; --tw-backdrop-invert: ; --tw-backdrop-opacity: ; --tw-backdrop-saturate: ; --tw-backdrop-sepia: ; text-wrap-mode: nowrap; color: rgba(0, 0, 0, 0); font-family: monospace; font-size: 0px; text-align: start;&quot;&gt;%3CmxGraphModel%3E%3Croot%3E%3CmxCell%20id%3D%220%22%2F%3E%3CmxCell%20id%3D%221%22%20parent%3D%220%22%2F%3E%3CmxCell%20id%3D%222%22%20value%3D%22%E0%B8%AB%E0%B8%A1%E0%B8%B2%E0%B8%A2%E0%B9%80%E0%B8%A5%E0%B8%82%E0%B8%9A%E0%B8%B1%E0%B8%8D%E0%B8%8A%E0%B8%B5%22%20style%3D%22ellipse%3BwhiteSpace%3Dwrap%3Bhtml%3D1%3Balign%3Dcenter%3B%22%20vertex%3D%221%22%20parent%3D%221%22%3E%3CmxGeometry%20x%3D%22570%22%20y%3D%221040%22%20width%3D%22100%22%20height%3D%2240%22%20as%3D%22geometry%22%2F%3E%3C%2FmxCell%3E%3C%2Froot%3E%3C%2FmxGraphModel%3E&lt;/span&gt;" style="rounded=1;arcSize=10;whiteSpace=wrap;html=1;align=center;" parent="1" vertex="1">
          <mxGeometry x="860" y="2680" width="100" height="40" as="geometry" />
        </mxCell>
        <mxCell id="FMb4IsS57maZO2ft8bvY-264" style="edgeStyle=orthogonalEdgeStyle;rounded=0;orthogonalLoop=1;jettySize=auto;html=1;exitX=0.5;exitY=0;exitDx=0;exitDy=0;entryX=0.5;entryY=1;entryDx=0;entryDy=0;" parent="1" source="FMb4IsS57maZO2ft8bvY-262" target="FMb4IsS57maZO2ft8bvY-247" edge="1">
          <mxGeometry relative="1" as="geometry" />
        </mxCell>
        <mxCell id="FMb4IsS57maZO2ft8bvY-262" value="รหัสนักศึกษา" style="rounded=1;arcSize=10;whiteSpace=wrap;html=1;align=center;" parent="1" vertex="1">
          <mxGeometry x="957" y="2680" width="100" height="40" as="geometry" />
        </mxCell>
        <mxCell id="FMb4IsS57maZO2ft8bvY-265" value="บัญชี" style="text;html=1;align=center;verticalAlign=middle;resizable=0;points=[];autosize=1;strokeColor=none;fillColor=none;" parent="1" vertex="1">
          <mxGeometry x="120" y="2690" width="50" height="30" as="geometry" />
        </mxCell>
        <mxCell id="FMb4IsS57maZO2ft8bvY-266" value="PK" style="text;html=1;align=center;verticalAlign=middle;resizable=0;points=[];autosize=1;strokeColor=none;fillColor=none;" parent="1" vertex="1">
          <mxGeometry x="130" y="2638" width="40" height="30" as="geometry" />
        </mxCell>
        <mxCell id="FMb4IsS57maZO2ft8bvY-267" value="FK" style="text;html=1;align=center;verticalAlign=middle;resizable=0;points=[];autosize=1;strokeColor=none;fillColor=none;" parent="1" vertex="1">
          <mxGeometry x="1000" y="2650" width="40" height="30" as="geometry" />
        </mxCell>
        <mxCell id="FMb4IsS57maZO2ft8bvY-268" value="รหัสATM" style="ellipse;whiteSpace=wrap;html=1;align=center;" parent="1" vertex="1">
          <mxGeometry x="420" y="2000" width="100" height="40" as="geometry" />
        </mxCell>
        <mxCell id="FMb4IsS57maZO2ft8bvY-269" style="edgeStyle=orthogonalEdgeStyle;rounded=0;orthogonalLoop=1;jettySize=auto;html=1;exitX=0.5;exitY=1;exitDx=0;exitDy=0;entryX=0.811;entryY=0.05;entryDx=0;entryDy=0;entryPerimeter=0;endArrow=none;startFill=0;" parent="1" source="FMb4IsS57maZO2ft8bvY-268" target="FMb4IsS57maZO2ft8bvY-183" edge="1">
          <mxGeometry relative="1" as="geometry" />
        </mxCell>
        <mxCell id="FMb4IsS57maZO2ft8bvY-270" value="ประเภทธุรกรรม" style="whiteSpace=wrap;html=1;align=center;" parent="1" vertex="1">
          <mxGeometry x="180" y="2800" width="100" height="40" as="geometry" />
        </mxCell>
        <mxCell id="FMb4IsS57maZO2ft8bvY-271" value="รหัสรายการธุรกรรม" style="whiteSpace=wrap;html=1;align=center;" parent="1" vertex="1">
          <mxGeometry x="280" y="2800" width="100" height="40" as="geometry" />
        </mxCell>
        <mxCell id="FMb4IsS57maZO2ft8bvY-272" value="วัน-เวลาที่ทำรายการ" style="whiteSpace=wrap;html=1;align=center;" parent="1" vertex="1">
          <mxGeometry x="377" y="2800" width="100" height="40" as="geometry" />
        </mxCell>
        <mxCell id="FMb4IsS57maZO2ft8bvY-273" value="จำนวนเงิน" style="whiteSpace=wrap;html=1;align=center;" parent="1" vertex="1">
          <mxGeometry x="477" y="2800" width="100" height="40" as="geometry" />
        </mxCell>
        <mxCell id="FMb4IsS57maZO2ft8bvY-302" style="edgeStyle=orthogonalEdgeStyle;rounded=0;orthogonalLoop=1;jettySize=auto;html=1;exitX=0.5;exitY=1;exitDx=0;exitDy=0;entryX=0.5;entryY=1;entryDx=0;entryDy=0;" parent="1" source="FMb4IsS57maZO2ft8bvY-274" target="FMb4IsS57maZO2ft8bvY-286" edge="1">
          <mxGeometry relative="1" as="geometry" />
        </mxCell>
        <mxCell id="FMb4IsS57maZO2ft8bvY-274" value="รหัสแอปธนาคาร" style="whiteSpace=wrap;html=1;align=center;" parent="1" vertex="1">
          <mxGeometry x="577" y="2800" width="100" height="40" as="geometry" />
        </mxCell>
        <mxCell id="FMb4IsS57maZO2ft8bvY-290" style="edgeStyle=orthogonalEdgeStyle;rounded=0;orthogonalLoop=1;jettySize=auto;html=1;exitX=0.5;exitY=1;exitDx=0;exitDy=0;entryX=0.5;entryY=1;entryDx=0;entryDy=0;" parent="1" source="FMb4IsS57maZO2ft8bvY-275" target="FMb4IsS57maZO2ft8bvY-280" edge="1">
          <mxGeometry relative="1" as="geometry" />
        </mxCell>
        <mxCell id="FMb4IsS57maZO2ft8bvY-275" value="รหัสเครื่องATM" style="whiteSpace=wrap;html=1;align=center;" parent="1" vertex="1">
          <mxGeometry x="677" y="2800" width="100" height="40" as="geometry" />
        </mxCell>
        <mxCell id="FMb4IsS57maZO2ft8bvY-296" style="edgeStyle=orthogonalEdgeStyle;rounded=0;orthogonalLoop=1;jettySize=auto;html=1;exitX=0.5;exitY=1;exitDx=0;exitDy=0;entryX=0.5;entryY=0;entryDx=0;entryDy=0;" parent="1" source="FMb4IsS57maZO2ft8bvY-276" target="FMb4IsS57maZO2ft8bvY-287" edge="1">
          <mxGeometry relative="1" as="geometry" />
        </mxCell>
        <mxCell id="FMb4IsS57maZO2ft8bvY-276" value="รหัสสกุลเงิน" style="whiteSpace=wrap;html=1;align=center;" parent="1" vertex="1">
          <mxGeometry x="777" y="2800" width="100" height="40" as="geometry" />
        </mxCell>
        <mxCell id="FMb4IsS57maZO2ft8bvY-277" value="รหัสสกุลเงิน" style="ellipse;whiteSpace=wrap;html=1;align=center;" parent="1" vertex="1">
          <mxGeometry x="450" y="2370" width="100" height="40" as="geometry" />
        </mxCell>
        <mxCell id="FMb4IsS57maZO2ft8bvY-299" style="edgeStyle=orthogonalEdgeStyle;rounded=0;orthogonalLoop=1;jettySize=auto;html=1;exitX=0.5;exitY=0;exitDx=0;exitDy=0;entryX=0.5;entryY=1;entryDx=0;entryDy=0;" parent="1" source="FMb4IsS57maZO2ft8bvY-279" target="FMb4IsS57maZO2ft8bvY-254" edge="1">
          <mxGeometry relative="1" as="geometry">
            <Array as="points">
              <mxPoint x="917" y="2770" />
              <mxPoint x="210" y="2770" />
            </Array>
          </mxGeometry>
        </mxCell>
        <mxCell id="FMb4IsS57maZO2ft8bvY-279" value="รหัสบัญชี" style="whiteSpace=wrap;html=1;align=center;" parent="1" vertex="1">
          <mxGeometry x="867" y="2800" width="100" height="40" as="geometry" />
        </mxCell>
        <mxCell id="FMb4IsS57maZO2ft8bvY-280" value="รหัสเครื่องATM" style="whiteSpace=wrap;html=1;align=center;" parent="1" vertex="1">
          <mxGeometry x="1120" y="2800" width="100" height="40" as="geometry" />
        </mxCell>
        <mxCell id="FMb4IsS57maZO2ft8bvY-281" value="สถานที่ตั้งเครื่อง" style="whiteSpace=wrap;html=1;align=center;" parent="1" vertex="1">
          <mxGeometry x="1220" y="2800" width="100" height="40" as="geometry" />
        </mxCell>
        <mxCell id="FMb4IsS57maZO2ft8bvY-293" style="edgeStyle=orthogonalEdgeStyle;rounded=0;orthogonalLoop=1;jettySize=auto;html=1;exitX=0.5;exitY=0;exitDx=0;exitDy=0;entryX=0.5;entryY=1;entryDx=0;entryDy=0;" parent="1" source="FMb4IsS57maZO2ft8bvY-282" target="FMb4IsS57maZO2ft8bvY-260" edge="1">
          <mxGeometry relative="1" as="geometry" />
        </mxCell>
        <mxCell id="FMb4IsS57maZO2ft8bvY-282" value="รหัสATM" style="whiteSpace=wrap;html=1;align=center;" parent="1" vertex="1">
          <mxGeometry x="1320" y="2800" width="100" height="40" as="geometry" />
        </mxCell>
        <mxCell id="FMb4IsS57maZO2ft8bvY-283" value="รหัสผ่าน" style="whiteSpace=wrap;html=1;align=center;" parent="1" vertex="1">
          <mxGeometry y="2800" width="100" height="40" as="geometry" />
        </mxCell>
        <mxCell id="FMb4IsS57maZO2ft8bvY-284" value="ชื่อผู้ใช้งาน" style="whiteSpace=wrap;html=1;align=center;" parent="1" vertex="1">
          <mxGeometry x="-100" y="2800" width="100" height="40" as="geometry" />
        </mxCell>
        <mxCell id="FMb4IsS57maZO2ft8bvY-285" value="เบอร์โทรศัพท์" style="whiteSpace=wrap;html=1;align=center;" parent="1" vertex="1">
          <mxGeometry x="-200" y="2800" width="100" height="40" as="geometry" />
        </mxCell>
        <mxCell id="FMb4IsS57maZO2ft8bvY-286" value="รหัสแอปธนาคาร" style="whiteSpace=wrap;html=1;align=center;" parent="1" vertex="1">
          <mxGeometry x="-300" y="2800" width="100" height="40" as="geometry" />
        </mxCell>
        <mxCell id="FMb4IsS57maZO2ft8bvY-287" value="รหัสสกุลเงิน" style="whiteSpace=wrap;html=1;align=center;" parent="1" vertex="1">
          <mxGeometry x="180" y="2923" width="100" height="40" as="geometry" />
        </mxCell>
        <mxCell id="FMb4IsS57maZO2ft8bvY-288" value="ชื่อสกุลเงิน" style="whiteSpace=wrap;html=1;align=center;" parent="1" vertex="1">
          <mxGeometry x="280" y="2923" width="100" height="40" as="geometry" />
        </mxCell>
        <mxCell id="FMb4IsS57maZO2ft8bvY-289" value="อัตราการแลกเปลี่ยนค่าเงิน" style="whiteSpace=wrap;html=1;align=center;" parent="1" vertex="1">
          <mxGeometry x="377" y="2923" width="100" height="40" as="geometry" />
        </mxCell>
        <mxCell id="FMb4IsS57maZO2ft8bvY-291" value="FK" style="text;html=1;align=center;verticalAlign=middle;resizable=0;points=[];autosize=1;strokeColor=none;fillColor=none;" parent="1" vertex="1">
          <mxGeometry x="730" y="2838" width="40" height="30" as="geometry" />
        </mxCell>
        <mxCell id="FMb4IsS57maZO2ft8bvY-292" value="PK" style="text;html=1;align=center;verticalAlign=middle;resizable=0;points=[];autosize=1;strokeColor=none;fillColor=none;" parent="1" vertex="1">
          <mxGeometry x="1160" y="2838" width="40" height="30" as="geometry" />
        </mxCell>
        <mxCell id="FMb4IsS57maZO2ft8bvY-294" value="PK" style="text;html=1;align=center;verticalAlign=middle;resizable=0;points=[];autosize=1;strokeColor=none;fillColor=none;" parent="1" vertex="1">
          <mxGeometry x="810" y="2728" width="40" height="30" as="geometry" />
        </mxCell>
        <mxCell id="FMb4IsS57maZO2ft8bvY-295" value="FK" style="text;html=1;align=center;verticalAlign=middle;resizable=0;points=[];autosize=1;strokeColor=none;fillColor=none;" parent="1" vertex="1">
          <mxGeometry x="1360" y="2758" width="40" height="30" as="geometry" />
        </mxCell>
        <mxCell id="FMb4IsS57maZO2ft8bvY-297" value="FK" style="text;html=1;align=center;verticalAlign=middle;resizable=0;points=[];autosize=1;strokeColor=none;fillColor=none;" parent="1" vertex="1">
          <mxGeometry x="820" y="2858" width="40" height="30" as="geometry" />
        </mxCell>
        <mxCell id="FMb4IsS57maZO2ft8bvY-298" value="PK" style="text;html=1;align=center;verticalAlign=middle;resizable=0;points=[];autosize=1;strokeColor=none;fillColor=none;" parent="1" vertex="1">
          <mxGeometry x="220" y="2888" width="40" height="30" as="geometry" />
        </mxCell>
        <mxCell id="FMb4IsS57maZO2ft8bvY-300" value="PK" style="text;html=1;align=center;verticalAlign=middle;resizable=0;points=[];autosize=1;strokeColor=none;fillColor=none;" parent="1" vertex="1">
          <mxGeometry x="210" y="2718" width="40" height="30" as="geometry" />
        </mxCell>
        <mxCell id="FMb4IsS57maZO2ft8bvY-301" value="FK" style="text;html=1;align=center;verticalAlign=middle;resizable=0;points=[];autosize=1;strokeColor=none;fillColor=none;" parent="1" vertex="1">
          <mxGeometry x="910" y="2768" width="40" height="30" as="geometry" />
        </mxCell>
        <mxCell id="FMb4IsS57maZO2ft8bvY-303" value="FK" style="text;html=1;align=center;verticalAlign=middle;resizable=0;points=[];autosize=1;strokeColor=none;fillColor=none;" parent="1" vertex="1">
          <mxGeometry x="620" y="2838" width="40" height="30" as="geometry" />
        </mxCell>
        <mxCell id="FMb4IsS57maZO2ft8bvY-304" value="PK" style="text;html=1;align=center;verticalAlign=middle;resizable=0;points=[];autosize=1;strokeColor=none;fillColor=none;" parent="1" vertex="1">
          <mxGeometry x="-290" y="2838" width="40" height="30" as="geometry" />
        </mxCell>
        <mxCell id="qs3AyS_cIpWHK2n2SVXH-1" value="2" style="text;html=1;align=center;verticalAlign=middle;resizable=0;points=[];autosize=1;strokeColor=none;fillColor=none;fontSize=22;" vertex="1" parent="1">
          <mxGeometry x="20" y="3033" width="40" height="40" as="geometry" />
        </mxCell>
        <mxCell id="qs3AyS_cIpWHK2n2SVXH-3" style="edgeStyle=orthogonalEdgeStyle;rounded=0;orthogonalLoop=1;jettySize=auto;html=1;exitX=1;exitY=0.5;exitDx=0;exitDy=0;entryX=0;entryY=0.25;entryDx=0;entryDy=0;endArrow=none;startFill=0;" edge="1" parent="1" source="qs3AyS_cIpWHK2n2SVXH-2" target="FMb4IsS57maZO2ft8bvY-63">
          <mxGeometry relative="1" as="geometry" />
        </mxCell>
        <mxCell id="qs3AyS_cIpWHK2n2SVXH-2" value="รหัสสกุลเงิน" style="ellipse;whiteSpace=wrap;html=1;align=center;" vertex="1" parent="1">
          <mxGeometry x="390" y="1330" width="100" height="40" as="geometry" />
        </mxCell>
      </root>
    </mxGraphModel>
  </diagram>
</mxfile>
